<mxfile host="www.draw.io" modified="2019-10-30T10:01:05.387Z" agent="Mozilla/5.0 (Windows NT 10.0; Win64; x64) AppleWebKit/537.36 (KHTML, like Gecko) Chrome/78.0.3904.70 Safari/537.36" etag="GeQNfbscnAEj-dgyEdOH" version="12.1.8" type="github" pages="4">
  <diagram id="rS_qZI41lQAe5zxoi_zx" name="whl_qa">
    <mxGraphModel dx="1108" dy="522" grid="1" gridSize="10" guides="1" tooltips="1" connect="1" arrows="1" fold="1" page="1" pageScale="1" pageWidth="1169" pageHeight="827" math="0" shadow="0">
      <root>
        <mxCell id="MBg1e8DsLjwRmy4zZQj9-0"/>
        <mxCell id="MBg1e8DsLjwRmy4zZQj9-1" parent="MBg1e8DsLjwRmy4zZQj9-0"/>
        <mxCell id="HQv46ei4Q6teHp4gMTtP-0" value="" style="rounded=1;arcSize=10;dashed=1;strokeColor=#000000;fillColor=none;gradientColor=none;dashPattern=8 3 1 3;strokeWidth=2;" parent="MBg1e8DsLjwRmy4zZQj9-1" vertex="1">
          <mxGeometry x="1000" y="20" width="150" height="230" as="geometry"/>
        </mxCell>
        <mxCell id="HQv46ei4Q6teHp4gMTtP-1" value="Response" style="ellipse;shape=cloud;whiteSpace=wrap;html=1;rounded=0;shadow=0;glass=0;comic=0;strokeColor=#D6B656;strokeWidth=2;fillColor=none;fontSize=14;" parent="MBg1e8DsLjwRmy4zZQj9-1" vertex="1">
          <mxGeometry x="1022" y="193" width="97" height="50" as="geometry"/>
        </mxCell>
        <mxCell id="HQv46ei4Q6teHp4gMTtP-2" value="&lt;p style=&quot;margin: 4px 0px 0px ; font-size: 13px&quot;&gt;&lt;b style=&quot;font-size: 13px&quot;&gt;&lt;i style=&quot;font-size: 13px&quot;&gt;Intent&lt;/i&gt;&lt;/b&gt;&lt;/p&gt;" style="verticalAlign=top;align=center;overflow=fill;fontSize=13;fontFamily=Helvetica;html=1;fillColor=#fff2cc;strokeColor=#d6b656;strokeWidth=2;" parent="MBg1e8DsLjwRmy4zZQj9-1" vertex="1">
          <mxGeometry x="1031" y="111" width="90" height="25" as="geometry"/>
        </mxCell>
        <mxCell id="HQv46ei4Q6teHp4gMTtP-3" value="&lt;p style=&quot;margin: 4px 0px 0px ; font-size: 13px&quot;&gt;&lt;strong style=&quot;font-size: 13px&quot;&gt;Fulfillment&lt;/strong&gt;&lt;/p&gt;" style="verticalAlign=middle;align=center;overflow=fill;fontSize=13;fontFamily=Helvetica;html=1;rounded=1;fontStyle=1;strokeWidth=2;fillColor=#E6FFCC;strokeColor=#006600;" parent="MBg1e8DsLjwRmy4zZQj9-1" vertex="1">
          <mxGeometry x="1027" y="154.5" width="94" height="27" as="geometry"/>
        </mxCell>
        <mxCell id="HQv46ei4Q6teHp4gMTtP-4" value="user utterance" style="ellipse;shape=cloud;whiteSpace=wrap;html=1;rounded=0;shadow=0;glass=0;comic=0;strokeColor=#10739e;strokeWidth=2;fillColor=none;fontSize=14;" parent="MBg1e8DsLjwRmy4zZQj9-1" vertex="1">
          <mxGeometry x="1005" y="31.5" width="137" height="65" as="geometry"/>
        </mxCell>
        <mxCell id="2CWKjtgeE618e0UvEoJd-0" value="" style="verticalLabelPosition=bottom;html=1;verticalAlign=top;align=center;strokeColor=#6c8ebf;fillColor=#dae8fc;shape=mxgraph.azure.user;strokeWidth=2;" parent="MBg1e8DsLjwRmy4zZQj9-1" vertex="1">
          <mxGeometry x="40" y="20" width="67" height="70" as="geometry"/>
        </mxCell>
        <mxCell id="2CWKjtgeE618e0UvEoJd-1" value="哈囉!" style="ellipse;shape=cloud;whiteSpace=wrap;html=1;rounded=0;shadow=0;glass=0;comic=0;strokeColor=#10739e;strokeWidth=2;fillColor=none;fontSize=14;" parent="MBg1e8DsLjwRmy4zZQj9-1" vertex="1">
          <mxGeometry x="157" y="42" width="80" height="60" as="geometry"/>
        </mxCell>
        <mxCell id="2CWKjtgeE618e0UvEoJd-2" value="" style="strokeColor=#AE4132;strokeWidth=2;exitX=0.87;exitY=0.65;exitDx=0;exitDy=0;rounded=1;edgeStyle=elbowEdgeStyle;fontSize=13;exitPerimeter=0;entryX=0.07;entryY=0.4;entryDx=0;entryDy=0;entryPerimeter=0;" parent="MBg1e8DsLjwRmy4zZQj9-1" source="2CWKjtgeE618e0UvEoJd-0" target="2CWKjtgeE618e0UvEoJd-1" edge="1">
          <mxGeometry width="100" height="100" relative="1" as="geometry">
            <mxPoint x="303" y="216" as="sourcePoint"/>
            <mxPoint x="150" y="66" as="targetPoint"/>
          </mxGeometry>
        </mxCell>
        <mxCell id="2CWKjtgeE618e0UvEoJd-3" value="&lt;p style=&quot;margin: 4px 0px 0px ; font-size: 13px&quot;&gt;&lt;b style=&quot;font-size: 13px&quot;&gt;&lt;i style=&quot;font-size: 13px&quot;&gt;Intent&lt;/i&gt;&lt;/b&gt;&lt;/p&gt;&lt;hr style=&quot;font-size: 13px&quot;&gt;&lt;div style=&quot;height: 2px ; font-size: 13px&quot;&gt;Welcome&lt;/div&gt;" style="verticalAlign=top;align=center;overflow=fill;fontSize=13;fontFamily=Helvetica;html=1;fillColor=#fff2cc;strokeColor=#d6b656;strokeWidth=2;" parent="MBg1e8DsLjwRmy4zZQj9-1" vertex="1">
          <mxGeometry x="320" y="42" width="90" height="60" as="geometry"/>
        </mxCell>
        <mxCell id="2CWKjtgeE618e0UvEoJd-4" value="" style="strokeColor=#AE4132;strokeWidth=2;entryX=0;entryY=0.5;entryDx=0;entryDy=0;rounded=1;edgeStyle=elbowEdgeStyle;fontSize=13;exitX=0.875;exitY=0.5;exitDx=0;exitDy=0;exitPerimeter=0;" parent="MBg1e8DsLjwRmy4zZQj9-1" source="2CWKjtgeE618e0UvEoJd-1" target="2CWKjtgeE618e0UvEoJd-3" edge="1">
          <mxGeometry width="100" height="100" relative="1" as="geometry">
            <mxPoint x="250" y="50" as="sourcePoint"/>
            <mxPoint x="312" y="59.5" as="targetPoint"/>
          </mxGeometry>
        </mxCell>
        <mxCell id="2CWKjtgeE618e0UvEoJd-5" value="" style="strokeColor=#AE4132;strokeWidth=2;exitX=1;exitY=0.5;exitDx=0;exitDy=0;entryX=0.07;entryY=0.4;entryDx=0;entryDy=0;rounded=1;edgeStyle=elbowEdgeStyle;fontSize=13;entryPerimeter=0;" parent="MBg1e8DsLjwRmy4zZQj9-1" source="2CWKjtgeE618e0UvEoJd-3" target="2CWKjtgeE618e0UvEoJd-6" edge="1">
          <mxGeometry width="100" height="100" relative="1" as="geometry">
            <mxPoint x="440" y="64" as="sourcePoint"/>
            <mxPoint x="512" y="64" as="targetPoint"/>
          </mxGeometry>
        </mxCell>
        <mxCell id="2CWKjtgeE618e0UvEoJd-6" value="您好，有甚麼可以&lt;br&gt;幫助您的?" style="ellipse;shape=cloud;whiteSpace=wrap;html=1;rounded=0;shadow=0;glass=0;comic=0;strokeColor=#D6B656;strokeWidth=2;fillColor=none;fontSize=14;" parent="MBg1e8DsLjwRmy4zZQj9-1" vertex="1">
          <mxGeometry x="510.5" y="15" width="157" height="100" as="geometry"/>
        </mxCell>
        <mxCell id="2CWKjtgeE618e0UvEoJd-7" value="" style="strokeColor=#AE4132;strokeWidth=2;exitX=0.55;exitY=0.95;exitDx=0;exitDy=0;entryX=0.5;entryY=0;entryDx=0;entryDy=0;rounded=1;edgeStyle=orthogonalEdgeStyle;fontSize=13;exitPerimeter=0;entryPerimeter=0;" parent="MBg1e8DsLjwRmy4zZQj9-1" source="2CWKjtgeE618e0UvEoJd-6" target="2CWKjtgeE618e0UvEoJd-8" edge="1">
          <mxGeometry width="100" height="100" relative="1" as="geometry">
            <mxPoint x="667.5" y="65" as="sourcePoint"/>
            <mxPoint x="597" y="156" as="targetPoint"/>
          </mxGeometry>
        </mxCell>
        <mxCell id="2CWKjtgeE618e0UvEoJd-8" value="&lt;p style=&quot;line-height: 100%; font-size: 18px;&quot;&gt;W&lt;/p&gt;" style="strokeWidth=2;html=1;shape=mxgraph.flowchart.decision;whiteSpace=wrap;shadow=0;fillColor=#fff2cc;fontSize=18;labelBorderColor=none;strokeColor=#d6b656;spacing=0;fontStyle=1;fontColor=#C2A54E;" parent="MBg1e8DsLjwRmy4zZQj9-1" vertex="1">
          <mxGeometry x="567" y="135.5" width="60" height="60" as="geometry"/>
        </mxCell>
        <mxCell id="pPeETfTvjZPfzdd3rKVB-0" value="我想要請問一下&lt;br&gt;.............." style="ellipse;shape=cloud;whiteSpace=wrap;html=1;rounded=0;shadow=0;glass=0;comic=0;strokeColor=#10739e;strokeWidth=2;fillColor=none;fontSize=14;" parent="MBg1e8DsLjwRmy4zZQj9-1" vertex="1">
          <mxGeometry x="530.5" y="218" width="137" height="65" as="geometry"/>
        </mxCell>
        <mxCell id="pPeETfTvjZPfzdd3rKVB-1" value="&lt;p style=&quot;margin: 4px 0px 0px ; font-size: 13px&quot;&gt;&lt;b style=&quot;font-size: 13px&quot;&gt;&lt;i style=&quot;font-size: 13px&quot;&gt;Intent&lt;/i&gt;&lt;/b&gt;&lt;/p&gt;&lt;hr style=&quot;font-size: 13px&quot;&gt;&lt;div style=&quot;height: 2px ; font-size: 13px&quot;&gt;QA&lt;/div&gt;" style="verticalAlign=top;align=center;overflow=fill;fontSize=13;fontFamily=Helvetica;html=1;fillColor=#fff2cc;strokeColor=#d6b656;strokeWidth=2;" parent="MBg1e8DsLjwRmy4zZQj9-1" vertex="1">
          <mxGeometry x="554" y="340" width="90" height="60" as="geometry"/>
        </mxCell>
        <mxCell id="B0rTiA6wy2Nm3J5O5Eux-0" value="&lt;p style=&quot;margin: 4px 0px 0px ; font-size: 13px&quot;&gt;&lt;strong style=&quot;font-size: 13px&quot;&gt;&lt;i&gt;Fulfillment{}&lt;/i&gt;&lt;/strong&gt;&lt;/p&gt;&lt;hr style=&quot;font-size: 13px&quot;&gt;&lt;p style=&quot;margin: 0px 0px 0px 8px ; font-size: 13px&quot;&gt;查詢系統負責人&lt;/p&gt;" style="verticalAlign=middle;align=center;overflow=fill;fontSize=13;fontFamily=Helvetica;html=1;rounded=1;fontStyle=1;strokeWidth=2;fillColor=#E6FFCC;strokeColor=#006600;" parent="MBg1e8DsLjwRmy4zZQj9-1" vertex="1">
          <mxGeometry x="527" y="470" width="140" height="70" as="geometry"/>
        </mxCell>
        <mxCell id="B0rTiA6wy2Nm3J5O5Eux-1" value="Response" style="ellipse;shape=cloud;whiteSpace=wrap;html=1;rounded=0;shadow=0;glass=0;comic=0;strokeColor=#D6B656;strokeWidth=2;fillColor=none;fontSize=14;" parent="MBg1e8DsLjwRmy4zZQj9-1" vertex="1">
          <mxGeometry x="538" y="589" width="118" height="61" as="geometry"/>
        </mxCell>
      </root>
    </mxGraphModel>
  </diagram>
  <diagram name="system_pic" id="c7558073-3199-34d8-9f00-42111426c3f3">
    <mxGraphModel dx="1110" dy="804" grid="1" gridSize="10" guides="1" tooltips="1" connect="1" arrows="1" fold="1" page="1" pageScale="1" pageWidth="1169" pageHeight="827" background="#ffffff" math="0" shadow="0">
      <root>
        <mxCell id="0"/>
        <mxCell id="1" parent="0"/>
        <mxCell id="UQ71u5e0_fnWOc4kWjcs-3" value="" style="rounded=1;arcSize=10;dashed=1;strokeColor=#000000;fillColor=#E6E6E6;gradientColor=none;strokeWidth=2;glass=0;opacity=35;" parent="1" vertex="1">
          <mxGeometry x="795" y="240" width="175" height="480" as="geometry"/>
        </mxCell>
        <mxCell id="UQ71u5e0_fnWOc4kWjcs-1" value="" style="rounded=1;arcSize=10;dashed=1;strokeColor=#000000;fillColor=#E6E6E6;gradientColor=none;strokeWidth=2;glass=0;opacity=35;" parent="1" vertex="1">
          <mxGeometry x="37" y="290" width="163" height="210" as="geometry"/>
        </mxCell>
        <mxCell id="UULcr4wzxz8fVeq9J12U-1" value="" style="verticalLabelPosition=bottom;html=1;verticalAlign=top;align=center;strokeColor=#6c8ebf;fillColor=#dae8fc;shape=mxgraph.azure.user;strokeWidth=2;" parent="1" vertex="1">
          <mxGeometry x="40" y="20" width="67" height="70" as="geometry"/>
        </mxCell>
        <mxCell id="UULcr4wzxz8fVeq9J12U-2" value="哈囉!" style="ellipse;shape=cloud;whiteSpace=wrap;html=1;rounded=0;shadow=0;glass=0;comic=0;strokeColor=#10739e;strokeWidth=2;fillColor=none;fontSize=14;" parent="1" vertex="1">
          <mxGeometry x="157" y="42" width="80" height="60" as="geometry"/>
        </mxCell>
        <mxCell id="UULcr4wzxz8fVeq9J12U-3" value="" style="strokeColor=#AE4132;strokeWidth=2;exitX=0.87;exitY=0.65;exitDx=0;exitDy=0;rounded=1;edgeStyle=elbowEdgeStyle;fontSize=13;exitPerimeter=0;entryX=0.07;entryY=0.4;entryDx=0;entryDy=0;entryPerimeter=0;" parent="1" source="UULcr4wzxz8fVeq9J12U-1" target="UULcr4wzxz8fVeq9J12U-2" edge="1">
          <mxGeometry width="100" height="100" relative="1" as="geometry">
            <mxPoint x="303" y="216" as="sourcePoint"/>
            <mxPoint x="150" y="66" as="targetPoint"/>
          </mxGeometry>
        </mxCell>
        <mxCell id="UULcr4wzxz8fVeq9J12U-4" value="&lt;p style=&quot;margin: 4px 0px 0px ; font-size: 13px&quot;&gt;&lt;b style=&quot;font-size: 13px&quot;&gt;&lt;i style=&quot;font-size: 13px&quot;&gt;Intent&lt;/i&gt;&lt;/b&gt;&lt;/p&gt;&lt;hr style=&quot;font-size: 13px&quot;&gt;&lt;div style=&quot;height: 2px ; font-size: 13px&quot;&gt;Welcome&lt;/div&gt;" style="verticalAlign=top;align=center;overflow=fill;fontSize=13;fontFamily=Helvetica;html=1;fillColor=#fff2cc;strokeColor=#d6b656;strokeWidth=2;" parent="1" vertex="1">
          <mxGeometry x="320" y="42" width="90" height="60" as="geometry"/>
        </mxCell>
        <mxCell id="UULcr4wzxz8fVeq9J12U-5" value="" style="strokeColor=#AE4132;strokeWidth=2;entryX=0;entryY=0.5;entryDx=0;entryDy=0;rounded=1;edgeStyle=elbowEdgeStyle;fontSize=13;exitX=0.875;exitY=0.5;exitDx=0;exitDy=0;exitPerimeter=0;" parent="1" source="UULcr4wzxz8fVeq9J12U-2" target="UULcr4wzxz8fVeq9J12U-4" edge="1">
          <mxGeometry width="100" height="100" relative="1" as="geometry">
            <mxPoint x="250" y="50" as="sourcePoint"/>
            <mxPoint x="312" y="59.5" as="targetPoint"/>
          </mxGeometry>
        </mxCell>
        <mxCell id="UULcr4wzxz8fVeq9J12U-6" value="" style="strokeColor=#AE4132;strokeWidth=2;exitX=1;exitY=0.5;exitDx=0;exitDy=0;entryX=0.07;entryY=0.4;entryDx=0;entryDy=0;rounded=1;edgeStyle=elbowEdgeStyle;fontSize=13;entryPerimeter=0;" parent="1" source="UULcr4wzxz8fVeq9J12U-4" target="UULcr4wzxz8fVeq9J12U-7" edge="1">
          <mxGeometry width="100" height="100" relative="1" as="geometry">
            <mxPoint x="440" y="64" as="sourcePoint"/>
            <mxPoint x="512" y="64" as="targetPoint"/>
          </mxGeometry>
        </mxCell>
        <mxCell id="UULcr4wzxz8fVeq9J12U-7" value="您好，有甚麼可以&lt;br&gt;幫助您的?" style="ellipse;shape=cloud;whiteSpace=wrap;html=1;rounded=0;shadow=0;glass=0;comic=0;strokeColor=#D6B656;strokeWidth=2;fillColor=none;fontSize=14;" parent="1" vertex="1">
          <mxGeometry x="510.5" y="15" width="157" height="100" as="geometry"/>
        </mxCell>
        <mxCell id="UULcr4wzxz8fVeq9J12U-8" value="" style="strokeColor=#AE4132;strokeWidth=2;exitX=0.55;exitY=0.95;exitDx=0;exitDy=0;entryX=0.5;entryY=0;entryDx=0;entryDy=0;rounded=1;edgeStyle=orthogonalEdgeStyle;fontSize=13;exitPerimeter=0;entryPerimeter=0;" parent="1" source="UULcr4wzxz8fVeq9J12U-7" target="46jpjzDpluu7MBixXLCP-1" edge="1">
          <mxGeometry width="100" height="100" relative="1" as="geometry">
            <mxPoint x="667.5" y="65" as="sourcePoint"/>
            <mxPoint x="597" y="156" as="targetPoint"/>
          </mxGeometry>
        </mxCell>
        <mxCell id="46jpjzDpluu7MBixXLCP-1" value="&lt;p style=&quot;line-height: 100%; font-size: 18px;&quot;&gt;W&lt;/p&gt;" style="strokeWidth=2;html=1;shape=mxgraph.flowchart.decision;whiteSpace=wrap;shadow=0;fillColor=#fff2cc;fontSize=18;labelBorderColor=none;strokeColor=#d6b656;spacing=0;fontStyle=1;fontColor=#C2A54E;" parent="1" vertex="1">
          <mxGeometry x="567" y="135.5" width="60" height="60" as="geometry"/>
        </mxCell>
        <mxCell id="WND-GHuz35NAi_lxnwUk-1" value="&lt;p style=&quot;margin: 4px 0px 0px ; font-size: 13px&quot;&gt;&lt;b style=&quot;font-size: 13px&quot;&gt;&lt;i style=&quot;font-size: 13px&quot;&gt;Intent&lt;/i&gt;&lt;/b&gt;&lt;/p&gt;&lt;hr style=&quot;font-size: 13px&quot;&gt;&lt;div style=&quot;height: 2px ; font-size: 13px&quot;&gt;查詢系統負責人&lt;/div&gt;" style="verticalAlign=top;align=center;overflow=fill;fontSize=13;fontFamily=Helvetica;html=1;fillColor=#fff2cc;strokeColor=#d6b656;gradientColor=none;strokeWidth=2;" parent="1" vertex="1">
          <mxGeometry x="221" y="240" width="117" height="60" as="geometry"/>
        </mxCell>
        <mxCell id="WND-GHuz35NAi_lxnwUk-2" value="&lt;p style=&quot;line-height: 100%&quot;&gt;&lt;br&gt;&lt;/p&gt;" style="strokeWidth=2;html=1;shape=mxgraph.flowchart.decision;whiteSpace=wrap;shadow=0;fillColor=#fad9d5;fontSize=13;labelBorderColor=none;strokeColor=#ae4132;spacing=0;" parent="1" vertex="1">
          <mxGeometry x="250" y="360" width="60" height="60" as="geometry"/>
        </mxCell>
        <mxCell id="WND-GHuz35NAi_lxnwUk-3" value="" style="strokeColor=#990000;strokeWidth=2;exitX=0.5;exitY=1;exitDx=0;exitDy=0;entryX=0.5;entryY=0;entryDx=0;entryDy=0;rounded=1;edgeStyle=elbowEdgeStyle;elbow=vertical;fontSize=13;entryPerimeter=0;" parent="1" source="WND-GHuz35NAi_lxnwUk-1" target="WND-GHuz35NAi_lxnwUk-2" edge="1">
          <mxGeometry width="100" height="100" relative="1" as="geometry">
            <mxPoint x="150" y="380" as="sourcePoint"/>
            <mxPoint x="420" y="560" as="targetPoint"/>
          </mxGeometry>
        </mxCell>
        <mxCell id="WND-GHuz35NAi_lxnwUk-4" value="&lt;p style=&quot;margin: 4px 0px 0px ; font-size: 13px&quot;&gt;&lt;strong style=&quot;font-size: 13px&quot;&gt;&lt;i&gt;Fulfillment{}&lt;/i&gt;&lt;/strong&gt;&lt;/p&gt;&lt;hr style=&quot;font-size: 13px&quot;&gt;&lt;p style=&quot;margin: 0px 0px 0px 8px ; font-size: 13px&quot;&gt;查詢系統負責人&lt;/p&gt;" style="verticalAlign=middle;align=center;overflow=fill;fontSize=13;fontFamily=Helvetica;html=1;rounded=1;fontStyle=1;strokeWidth=2;fillColor=#E6FFCC;strokeColor=#006600;" parent="1" vertex="1">
          <mxGeometry x="210" y="470" width="140" height="70" as="geometry"/>
        </mxCell>
        <mxCell id="WND-GHuz35NAi_lxnwUk-5" value="" style="strokeColor=#990000;strokeWidth=2;exitX=0.5;exitY=1;exitDx=0;exitDy=0;entryX=0.5;entryY=0;entryDx=0;entryDy=0;rounded=1;edgeStyle=elbowEdgeStyle;elbow=vertical;fontSize=13;exitPerimeter=0;" parent="1" source="WND-GHuz35NAi_lxnwUk-2" target="WND-GHuz35NAi_lxnwUk-4" edge="1">
          <mxGeometry width="100" height="100" relative="1" as="geometry">
            <mxPoint x="440" y="480" as="sourcePoint"/>
            <mxPoint x="440" y="570" as="targetPoint"/>
          </mxGeometry>
        </mxCell>
        <mxCell id="WND-GHuz35NAi_lxnwUk-6" value="&lt;b&gt;&lt;font style=&quot;font-size: 15px&quot;&gt;Yes&lt;/font&gt;&lt;/b&gt;" style="text;html=1;resizable=0;autosize=1;align=center;verticalAlign=middle;points=[];fillColor=none;strokeColor=none;rounded=0;shadow=0;fontSize=13;fontColor=#AE4132;" parent="1" vertex="1">
          <mxGeometry x="280" y="430" width="40" height="20" as="geometry"/>
        </mxCell>
        <mxCell id="WND-GHuz35NAi_lxnwUk-7" value="&lt;span style=&quot;font-size: 14px&quot;&gt;sys code?&lt;/span&gt;" style="text;html=1;resizable=0;autosize=1;align=center;verticalAlign=middle;points=[];fillColor=none;strokeColor=none;rounded=0;shadow=0;fontSize=13;fontStyle=0;fontColor=#AE4132;" parent="1" vertex="1">
          <mxGeometry x="288" y="340" width="80" height="20" as="geometry"/>
        </mxCell>
        <mxCell id="WND-GHuz35NAi_lxnwUk-8" value="" style="strokeColor=#990000;strokeWidth=2;exitX=0;exitY=0.5;exitDx=0;exitDy=0;rounded=1;edgeStyle=elbowEdgeStyle;elbow=vertical;fontSize=13;exitPerimeter=0;" parent="1" source="WND-GHuz35NAi_lxnwUk-2" edge="1">
          <mxGeometry width="100" height="100" relative="1" as="geometry">
            <mxPoint x="290" y="290" as="sourcePoint"/>
            <mxPoint x="180" y="390" as="targetPoint"/>
          </mxGeometry>
        </mxCell>
        <mxCell id="WND-GHuz35NAi_lxnwUk-9" value="&lt;b&gt;&lt;font style=&quot;font-size: 15px&quot;&gt;No&lt;/font&gt;&lt;/b&gt;" style="text;html=1;resizable=0;autosize=1;align=center;verticalAlign=middle;points=[];fillColor=none;strokeColor=none;rounded=0;shadow=0;fontSize=13;fontColor=#AE4132;" parent="1" vertex="1">
          <mxGeometry x="220" y="394" width="40" height="20" as="geometry"/>
        </mxCell>
        <mxCell id="WND-GHuz35NAi_lxnwUk-10" value="&amp;nbsp;我想要查&lt;br&gt;系統負責人" style="ellipse;shape=cloud;whiteSpace=wrap;html=1;rounded=0;shadow=0;glass=0;comic=0;strokeColor=#10739e;strokeWidth=2;fillColor=none;fontSize=14;" parent="1" vertex="1">
          <mxGeometry x="197" y="130" width="150" height="90" as="geometry"/>
        </mxCell>
        <mxCell id="WND-GHuz35NAi_lxnwUk-11" value="" style="strokeColor=#990000;strokeWidth=2;exitX=0.55;exitY=0.95;exitDx=0;exitDy=0;entryX=0.5;entryY=0;entryDx=0;entryDy=0;rounded=1;edgeStyle=elbowEdgeStyle;elbow=vertical;fontSize=13;exitPerimeter=0;" parent="1" source="WND-GHuz35NAi_lxnwUk-10" target="WND-GHuz35NAi_lxnwUk-1" edge="1">
          <mxGeometry width="100" height="100" relative="1" as="geometry">
            <mxPoint x="290" y="350" as="sourcePoint"/>
            <mxPoint x="290" y="460" as="targetPoint"/>
          </mxGeometry>
        </mxCell>
        <mxCell id="WND-GHuz35NAi_lxnwUk-12" value="請問是哪個&lt;br&gt;系統?" style="ellipse;shape=cloud;whiteSpace=wrap;html=1;rounded=0;shadow=0;glass=0;comic=0;strokeColor=#D6B656;strokeWidth=2;fillColor=none;fontSize=14;" parent="1" vertex="1">
          <mxGeometry x="57" y="355" width="130" height="71" as="geometry"/>
        </mxCell>
        <mxCell id="WND-GHuz35NAi_lxnwUk-13" value="" style="strokeColor=#990000;strokeWidth=2;exitX=0.55;exitY=0.95;exitDx=0;exitDy=0;entryX=0.6;entryY=0;entryDx=0;entryDy=0;rounded=1;edgeStyle=elbowEdgeStyle;elbow=vertical;fontSize=13;exitPerimeter=0;entryPerimeter=0;" parent="1" source="WND-GHuz35NAi_lxnwUk-12" target="WND-GHuz35NAi_lxnwUk-17" edge="1">
          <mxGeometry width="100" height="100" relative="1" as="geometry">
            <mxPoint x="46.5" y="497.5" as="sourcePoint"/>
            <mxPoint x="129" y="456" as="targetPoint"/>
          </mxGeometry>
        </mxCell>
        <mxCell id="WND-GHuz35NAi_lxnwUk-14" value="CMS系統負責則人是：&lt;br&gt;GRACE LIU&lt;br&gt;ALLEN YU&lt;br&gt;請問是否幫您將問題轉給&lt;br&gt;系統負責人？" style="ellipse;shape=cloud;whiteSpace=wrap;html=1;rounded=0;shadow=0;glass=0;comic=0;strokeColor=#D6B656;strokeWidth=2;fillColor=none;fontSize=14;" parent="1" vertex="1">
          <mxGeometry x="35" y="561" width="220" height="130" as="geometry"/>
        </mxCell>
        <mxCell id="WND-GHuz35NAi_lxnwUk-15" value="" style="strokeColor=#990000;strokeWidth=2;exitX=0.5;exitY=1;exitDx=0;exitDy=0;entryX=0.513;entryY=0.078;entryDx=0;entryDy=0;rounded=1;edgeStyle=elbowEdgeStyle;elbow=vertical;fontSize=13;entryPerimeter=0;" parent="1" source="WND-GHuz35NAi_lxnwUk-4" target="WND-GHuz35NAi_lxnwUk-14" edge="1">
          <mxGeometry width="100" height="100" relative="1" as="geometry">
            <mxPoint x="493" y="525" as="sourcePoint"/>
            <mxPoint x="480" y="569" as="targetPoint"/>
          </mxGeometry>
        </mxCell>
        <mxCell id="WND-GHuz35NAi_lxnwUk-16" value="" style="strokeColor=#AE4132;strokeWidth=2;exitX=0;exitY=0.5;exitDx=0;exitDy=0;edgeStyle=orthogonalEdgeStyle;elbow=vertical;fontSize=13;jumpStyle=none;comic=0;rounded=1;" parent="1" source="WND-GHuz35NAi_lxnwUk-17" edge="1">
          <mxGeometry width="100" height="100" relative="1" as="geometry">
            <mxPoint x="99" y="446" as="sourcePoint"/>
            <mxPoint x="280" y="360" as="targetPoint"/>
            <Array as="points">
              <mxPoint x="50" y="466"/>
              <mxPoint x="50" y="320"/>
              <mxPoint x="280" y="320"/>
            </Array>
          </mxGeometry>
        </mxCell>
        <mxCell id="WND-GHuz35NAi_lxnwUk-17" value="CMS" style="rounded=0;whiteSpace=wrap;html=1;strokeWidth=1;fontSize=13;fillColor=#dae8fc;strokeColor=#6c8ebf;fontColor=#000000;" parent="1" vertex="1">
          <mxGeometry x="81" y="451" width="80" height="30" as="geometry"/>
        </mxCell>
        <mxCell id="WND-GHuz35NAi_lxnwUk-18" value="" style="strokeColor=#990000;strokeWidth=2;exitX=0.875;exitY=0.5;exitDx=0;exitDy=0;rounded=1;edgeStyle=orthogonalEdgeStyle;elbow=vertical;fontSize=13;exitPerimeter=0;entryX=0;entryY=0.5;entryDx=0;entryDy=0;entryPerimeter=0;" parent="1" source="WND-GHuz35NAi_lxnwUk-14" target="E_rGvpwOMSvOUPzh0rm--2" edge="1">
          <mxGeometry width="100" height="100" relative="1" as="geometry">
            <mxPoint x="534" y="592.5" as="sourcePoint"/>
            <mxPoint x="270" y="700" as="targetPoint"/>
            <Array as="points"/>
          </mxGeometry>
        </mxCell>
        <mxCell id="WND-GHuz35NAi_lxnwUk-19" value="&lt;p style=&quot;line-height: 100%; font-size: 18px;&quot;&gt;W&lt;/p&gt;" style="strokeWidth=2;html=1;shape=mxgraph.flowchart.decision;whiteSpace=wrap;shadow=0;fillColor=#fff2cc;fontSize=18;labelBorderColor=none;strokeColor=#d6b656;spacing=0;fontStyle=1;fontColor=#C2A54E;" parent="1" vertex="1">
          <mxGeometry x="235.5" y="722" width="60" height="60" as="geometry"/>
        </mxCell>
        <mxCell id="qLVZKGaKp2njGoYdbKV3-1" value="" style="edgeStyle=orthogonalEdgeStyle;rounded=1;orthogonalLoop=1;jettySize=auto;html=1;fontSize=13;strokeColor=#990000;strokeWidth=2;" parent="1" source="E_rGvpwOMSvOUPzh0rm--1" target="yYg9ebC0nji1FcP7OP8K-6" edge="1">
          <mxGeometry relative="1" as="geometry"/>
        </mxCell>
        <mxCell id="E_rGvpwOMSvOUPzh0rm--1" value="&lt;p style=&quot;margin: 4px 0px 0px ; font-size: 13px&quot;&gt;&lt;b style=&quot;font-size: 13px&quot;&gt;&lt;i style=&quot;font-size: 13px&quot;&gt;following-Intent&lt;/i&gt;&lt;/b&gt;&lt;/p&gt;&lt;hr style=&quot;font-size: 13px&quot;&gt;&lt;div style=&quot;height: 2px ; font-size: 13px&quot;&gt;轉達問題&lt;/div&gt;" style="verticalAlign=top;align=center;overflow=fill;fontSize=13;fontFamily=Helvetica;html=1;fillColor=#fff2cc;strokeColor=#d6b656;gradientColor=none;strokeWidth=2;" parent="1" vertex="1">
          <mxGeometry x="630" y="242" width="117" height="60" as="geometry"/>
        </mxCell>
        <mxCell id="E_rGvpwOMSvOUPzh0rm--2" value="&lt;p style=&quot;line-height: 100%&quot;&gt;&lt;br&gt;&lt;/p&gt;" style="strokeWidth=2;html=1;shape=mxgraph.flowchart.decision;whiteSpace=wrap;shadow=0;fillColor=#fad9d5;fontSize=13;labelBorderColor=none;strokeColor=#ae4132;spacing=0;" parent="1" vertex="1">
          <mxGeometry x="290" y="596" width="60" height="60" as="geometry"/>
        </mxCell>
        <mxCell id="E_rGvpwOMSvOUPzh0rm--4" value="&lt;b&gt;&lt;font style=&quot;font-size: 15px&quot;&gt;No&lt;/font&gt;&lt;/b&gt;" style="text;html=1;resizable=0;autosize=1;align=center;verticalAlign=middle;points=[];fillColor=none;strokeColor=none;rounded=0;shadow=0;fontSize=13;fontColor=#AE4132;" parent="1" vertex="1">
          <mxGeometry x="320" y="666" width="40" height="20" as="geometry"/>
        </mxCell>
        <mxCell id="E_rGvpwOMSvOUPzh0rm--5" value="&lt;b&gt;&lt;font style=&quot;font-size: 15px&quot;&gt;Yes&lt;/font&gt;&lt;/b&gt;" style="text;html=1;resizable=0;autosize=1;align=center;verticalAlign=middle;points=[];fillColor=none;strokeColor=none;rounded=0;shadow=0;fontSize=13;fontColor=#AE4132;" parent="1" vertex="1">
          <mxGeometry x="350" y="606" width="40" height="20" as="geometry"/>
        </mxCell>
        <mxCell id="E_rGvpwOMSvOUPzh0rm--6" value="" style="strokeColor=#990000;strokeWidth=2;exitX=0;exitY=0.5;exitDx=0;exitDy=0;rounded=1;edgeStyle=orthogonalEdgeStyle;elbow=vertical;fontSize=13;exitPerimeter=0;entryX=0.96;entryY=0.7;entryDx=0;entryDy=0;entryPerimeter=0;" parent="1" source="46jpjzDpluu7MBixXLCP-1" target="WND-GHuz35NAi_lxnwUk-10" edge="1">
          <mxGeometry width="100" height="100" relative="1" as="geometry">
            <mxPoint x="660" y="591" as="sourcePoint"/>
            <mxPoint x="804" y="336" as="targetPoint"/>
            <Array as="points">
              <mxPoint x="457" y="166"/>
              <mxPoint x="457" y="193"/>
            </Array>
          </mxGeometry>
        </mxCell>
        <mxCell id="E_rGvpwOMSvOUPzh0rm--7" value="" style="strokeColor=#990000;strokeWidth=2;exitX=0.5;exitY=1;exitDx=0;exitDy=0;rounded=1;edgeStyle=orthogonalEdgeStyle;elbow=vertical;fontSize=13;exitPerimeter=0;entryX=0.25;entryY=0.25;entryDx=0;entryDy=0;entryPerimeter=0;" parent="1" source="E_rGvpwOMSvOUPzh0rm--2" target="E_rGvpwOMSvOUPzh0rm--8" edge="1">
          <mxGeometry width="100" height="100" relative="1" as="geometry">
            <mxPoint x="375" y="711.5" as="sourcePoint"/>
            <mxPoint x="320" y="700" as="targetPoint"/>
            <Array as="points"/>
          </mxGeometry>
        </mxCell>
        <mxCell id="E_rGvpwOMSvOUPzh0rm--8" value="好的！希望再次&lt;br&gt;為您服務" style="ellipse;shape=cloud;whiteSpace=wrap;html=1;rounded=0;shadow=0;glass=0;comic=0;strokeColor=#D6B656;strokeWidth=2;fillColor=none;fontSize=14;" parent="1" vertex="1">
          <mxGeometry x="347" y="656" width="143" height="90" as="geometry"/>
        </mxCell>
        <mxCell id="E_rGvpwOMSvOUPzh0rm--9" value="" style="strokeColor=#990000;strokeWidth=2;exitX=1;exitY=0.5;exitDx=0;exitDy=0;rounded=1;edgeStyle=orthogonalEdgeStyle;fontSize=13;exitPerimeter=0;entryX=0.5;entryY=0;entryDx=0;entryDy=0;" parent="1" source="E_rGvpwOMSvOUPzh0rm--2" target="E_rGvpwOMSvOUPzh0rm--1" edge="1">
          <mxGeometry width="100" height="100" relative="1" as="geometry">
            <mxPoint x="390" y="619.5" as="sourcePoint"/>
            <mxPoint x="452" y="619.5" as="targetPoint"/>
            <Array as="points">
              <mxPoint x="500" y="626"/>
              <mxPoint x="500" y="210"/>
              <mxPoint x="689" y="210"/>
            </Array>
          </mxGeometry>
        </mxCell>
        <mxCell id="E_rGvpwOMSvOUPzh0rm--12" value="" style="strokeColor=#990000;strokeWidth=2;exitX=0.13;exitY=0.77;exitDx=0;exitDy=0;rounded=1;edgeStyle=orthogonalEdgeStyle;elbow=vertical;fontSize=13;exitPerimeter=0;entryX=1;entryY=0.5;entryDx=0;entryDy=0;entryPerimeter=0;" parent="1" source="E_rGvpwOMSvOUPzh0rm--8" target="WND-GHuz35NAi_lxnwUk-19" edge="1">
          <mxGeometry width="100" height="100" relative="1" as="geometry">
            <mxPoint x="552" y="728" as="sourcePoint"/>
            <mxPoint x="589" y="764" as="targetPoint"/>
            <Array as="points"/>
          </mxGeometry>
        </mxCell>
        <mxCell id="yYg9ebC0nji1FcP7OP8K-1" value="" style="rounded=1;arcSize=10;dashed=1;strokeColor=#000000;fillColor=none;gradientColor=none;dashPattern=8 3 1 3;strokeWidth=2;" parent="1" vertex="1">
          <mxGeometry x="1000" y="20" width="150" height="230" as="geometry"/>
        </mxCell>
        <mxCell id="yYg9ebC0nji1FcP7OP8K-2" value="Response" style="ellipse;shape=cloud;whiteSpace=wrap;html=1;rounded=0;shadow=0;glass=0;comic=0;strokeColor=#D6B656;strokeWidth=2;fillColor=none;fontSize=14;" parent="1" vertex="1">
          <mxGeometry x="1022" y="193" width="97" height="50" as="geometry"/>
        </mxCell>
        <mxCell id="yYg9ebC0nji1FcP7OP8K-3" value="&lt;p style=&quot;margin: 4px 0px 0px ; font-size: 13px&quot;&gt;&lt;b style=&quot;font-size: 13px&quot;&gt;&lt;i style=&quot;font-size: 13px&quot;&gt;Intent&lt;/i&gt;&lt;/b&gt;&lt;/p&gt;" style="verticalAlign=top;align=center;overflow=fill;fontSize=13;fontFamily=Helvetica;html=1;fillColor=#fff2cc;strokeColor=#d6b656;strokeWidth=2;" parent="1" vertex="1">
          <mxGeometry x="1031" y="111" width="90" height="25" as="geometry"/>
        </mxCell>
        <mxCell id="yYg9ebC0nji1FcP7OP8K-4" value="&lt;p style=&quot;margin: 4px 0px 0px ; font-size: 13px&quot;&gt;&lt;strong style=&quot;font-size: 13px&quot;&gt;Fulfillment&lt;/strong&gt;&lt;/p&gt;" style="verticalAlign=middle;align=center;overflow=fill;fontSize=13;fontFamily=Helvetica;html=1;rounded=1;fontStyle=1;strokeWidth=2;fillColor=#E6FFCC;strokeColor=#006600;" parent="1" vertex="1">
          <mxGeometry x="1027" y="154.5" width="94" height="27" as="geometry"/>
        </mxCell>
        <mxCell id="yYg9ebC0nji1FcP7OP8K-5" value="user utterance" style="ellipse;shape=cloud;whiteSpace=wrap;html=1;rounded=0;shadow=0;glass=0;comic=0;strokeColor=#10739e;strokeWidth=2;fillColor=none;fontSize=14;" parent="1" vertex="1">
          <mxGeometry x="1005" y="31.5" width="137" height="65" as="geometry"/>
        </mxCell>
        <mxCell id="qLVZKGaKp2njGoYdbKV3-3" value="" style="edgeStyle=orthogonalEdgeStyle;rounded=1;orthogonalLoop=1;jettySize=auto;html=1;fontSize=13;strokeColor=#990000;strokeWidth=2;entryX=0.5;entryY=0;entryDx=0;entryDy=0;" parent="1" source="yYg9ebC0nji1FcP7OP8K-6" target="yYg9ebC0nji1FcP7OP8K-31" edge="1">
          <mxGeometry relative="1" as="geometry">
            <mxPoint x="688.5" y="496" as="targetPoint"/>
          </mxGeometry>
        </mxCell>
        <mxCell id="qLVZKGaKp2njGoYdbKV3-7" value="" style="edgeStyle=orthogonalEdgeStyle;rounded=1;orthogonalLoop=1;jettySize=auto;html=1;fontSize=13;strokeColor=#990000;strokeWidth=2;entryX=0.4;entryY=0.1;entryDx=0;entryDy=0;entryPerimeter=0;" parent="1" source="yYg9ebC0nji1FcP7OP8K-6" target="yYg9ebC0nji1FcP7OP8K-7" edge="1">
          <mxGeometry relative="1" as="geometry">
            <mxPoint x="798.5" y="386" as="targetPoint"/>
            <Array as="points">
              <mxPoint x="770" y="386"/>
              <mxPoint x="770" y="282"/>
              <mxPoint x="833" y="282"/>
            </Array>
          </mxGeometry>
        </mxCell>
        <mxCell id="yYg9ebC0nji1FcP7OP8K-6" value="&lt;p style=&quot;line-height: 100%&quot;&gt;&lt;br&gt;&lt;/p&gt;" style="strokeWidth=2;html=1;shape=mxgraph.flowchart.decision;whiteSpace=wrap;shadow=0;fillColor=#fad9d5;fontSize=13;labelBorderColor=none;strokeColor=#ae4132;spacing=0;" parent="1" vertex="1">
          <mxGeometry x="658.5" y="356" width="60" height="60" as="geometry"/>
        </mxCell>
        <mxCell id="yYg9ebC0nji1FcP7OP8K-7" value="請問您的&lt;br&gt;員工編號？" style="ellipse;shape=cloud;whiteSpace=wrap;html=1;rounded=0;shadow=0;glass=0;comic=0;strokeColor=#D6B656;strokeWidth=2;fillColor=none;fontSize=14;" parent="1" vertex="1">
          <mxGeometry x="801" y="301" width="130" height="71" as="geometry"/>
        </mxCell>
        <mxCell id="yYg9ebC0nji1FcP7OP8K-8" value="" style="strokeColor=#990000;strokeWidth=2;exitX=0.55;exitY=0.95;exitDx=0;exitDy=0;entryX=0.5;entryY=0;entryDx=0;entryDy=0;rounded=1;edgeStyle=elbowEdgeStyle;elbow=vertical;fontSize=13;exitPerimeter=0;" parent="1" source="yYg9ebC0nji1FcP7OP8K-7" target="yYg9ebC0nji1FcP7OP8K-9" edge="1">
          <mxGeometry width="100" height="100" relative="1" as="geometry">
            <mxPoint x="790.5" y="443.5" as="sourcePoint"/>
            <mxPoint x="873" y="402" as="targetPoint"/>
          </mxGeometry>
        </mxCell>
        <mxCell id="yYg9ebC0nji1FcP7OP8K-9" value="M1933" style="rounded=0;whiteSpace=wrap;html=1;strokeWidth=1;fontSize=13;fillColor=#dae8fc;strokeColor=#6c8ebf;" parent="1" vertex="1">
          <mxGeometry x="833" y="387" width="80" height="30" as="geometry"/>
        </mxCell>
        <mxCell id="yYg9ebC0nji1FcP7OP8K-12" value="請問您的分機？" style="ellipse;shape=cloud;whiteSpace=wrap;html=1;rounded=0;shadow=0;glass=0;comic=0;strokeColor=#D6B656;strokeWidth=2;fillColor=none;fontSize=14;" parent="1" vertex="1">
          <mxGeometry x="792" y="428" width="130" height="71" as="geometry"/>
        </mxCell>
        <mxCell id="yYg9ebC0nji1FcP7OP8K-13" value="" style="strokeColor=#990000;strokeWidth=2;entryX=0.5;entryY=0;entryDx=0;entryDy=0;rounded=1;edgeStyle=elbowEdgeStyle;elbow=vertical;fontSize=13;" parent="1" target="yYg9ebC0nji1FcP7OP8K-14" edge="1">
          <mxGeometry width="100" height="100" relative="1" as="geometry">
            <mxPoint x="863" y="495" as="sourcePoint"/>
            <mxPoint x="864" y="529" as="targetPoint"/>
          </mxGeometry>
        </mxCell>
        <mxCell id="yYg9ebC0nji1FcP7OP8K-14" value="7225" style="rounded=0;whiteSpace=wrap;html=1;strokeWidth=1;fontSize=13;fillColor=#dae8fc;strokeColor=#6c8ebf;fontColor=#000000;" parent="1" vertex="1">
          <mxGeometry x="823" y="514" width="80" height="30" as="geometry"/>
        </mxCell>
        <mxCell id="yYg9ebC0nji1FcP7OP8K-18" value="請問您的問題？" style="ellipse;shape=cloud;whiteSpace=wrap;html=1;rounded=0;shadow=0;glass=0;comic=0;strokeColor=#D6B656;strokeWidth=2;fillColor=none;fontSize=14;" parent="1" vertex="1">
          <mxGeometry x="811" y="562" width="130" height="71" as="geometry"/>
        </mxCell>
        <mxCell id="yYg9ebC0nji1FcP7OP8K-19" value="" style="strokeColor=#990000;strokeWidth=2;exitX=0.55;exitY=0.95;exitDx=0;exitDy=0;entryX=0.5;entryY=0;entryDx=0;entryDy=0;rounded=1;edgeStyle=elbowEdgeStyle;elbow=vertical;fontSize=13;exitPerimeter=0;" parent="1" source="yYg9ebC0nji1FcP7OP8K-18" target="yYg9ebC0nji1FcP7OP8K-20" edge="1">
          <mxGeometry width="100" height="100" relative="1" as="geometry">
            <mxPoint x="800.5" y="704.5" as="sourcePoint"/>
            <mxPoint x="883" y="663" as="targetPoint"/>
          </mxGeometry>
        </mxCell>
        <mxCell id="qLVZKGaKp2njGoYdbKV3-9" value="" style="edgeStyle=orthogonalEdgeStyle;rounded=1;orthogonalLoop=1;jettySize=auto;html=1;fontSize=13;strokeColor=#990000;strokeWidth=2;entryX=0.5;entryY=0;entryDx=0;entryDy=0;entryPerimeter=0;exitX=0.5;exitY=1;exitDx=0;exitDy=0;" parent="1" source="yYg9ebC0nji1FcP7OP8K-20" target="yYg9ebC0nji1FcP7OP8K-6" edge="1">
          <mxGeometry relative="1" as="geometry">
            <mxPoint x="883" y="758" as="targetPoint"/>
            <Array as="points">
              <mxPoint x="883" y="702"/>
              <mxPoint x="950" y="702"/>
              <mxPoint x="950" y="252"/>
              <mxPoint x="760" y="252"/>
              <mxPoint x="760" y="322"/>
              <mxPoint x="689" y="322"/>
            </Array>
          </mxGeometry>
        </mxCell>
        <mxCell id="yYg9ebC0nji1FcP7OP8K-20" value="請問要怎樣申請程式？" style="rounded=0;whiteSpace=wrap;html=1;strokeWidth=1;fontSize=13;fillColor=#dae8fc;strokeColor=#6c8ebf;fontColor=#000000;" parent="1" vertex="1">
          <mxGeometry x="843" y="648" width="80" height="30" as="geometry"/>
        </mxCell>
        <mxCell id="yYg9ebC0nji1FcP7OP8K-23" value="&lt;span style=&quot;font-size: 14px&quot;&gt;employee_no?&lt;br&gt;ext_no?&lt;br&gt;issue?&lt;br&gt;&lt;/span&gt;" style="text;html=1;resizable=0;autosize=1;align=right;verticalAlign=middle;points=[];fillColor=none;strokeColor=none;rounded=0;shadow=0;fontSize=13;fontStyle=0;fontColor=#AE4132;" parent="1" vertex="1">
          <mxGeometry x="548.5" y="332" width="110" height="60" as="geometry"/>
        </mxCell>
        <mxCell id="yYg9ebC0nji1FcP7OP8K-29" value="" style="strokeColor=#990000;strokeWidth=2;exitX=0.5;exitY=1;exitDx=0;exitDy=0;entryX=0.625;entryY=0.2;entryDx=0;entryDy=0;rounded=1;edgeStyle=elbowEdgeStyle;elbow=vertical;fontSize=13;entryPerimeter=0;" parent="1" source="yYg9ebC0nji1FcP7OP8K-9" target="yYg9ebC0nji1FcP7OP8K-12" edge="1">
          <mxGeometry width="100" height="100" relative="1" as="geometry">
            <mxPoint x="960" y="439" as="sourcePoint"/>
            <mxPoint x="960" y="458" as="targetPoint"/>
          </mxGeometry>
        </mxCell>
        <mxCell id="yYg9ebC0nji1FcP7OP8K-30" value="" style="strokeColor=#990000;strokeWidth=2;exitX=0.5;exitY=1;exitDx=0;exitDy=0;entryX=0.4;entryY=0.1;entryDx=0;entryDy=0;rounded=1;edgeStyle=elbowEdgeStyle;elbow=vertical;fontSize=13;entryPerimeter=0;" parent="1" source="yYg9ebC0nji1FcP7OP8K-14" target="yYg9ebC0nji1FcP7OP8K-18" edge="1">
          <mxGeometry width="100" height="100" relative="1" as="geometry">
            <mxPoint x="791.5" y="563" as="sourcePoint"/>
            <mxPoint x="791.5" y="582" as="targetPoint"/>
          </mxGeometry>
        </mxCell>
        <mxCell id="qLVZKGaKp2njGoYdbKV3-12" value="" style="rounded=1;orthogonalLoop=1;jettySize=auto;html=1;fontSize=13;strokeColor=#990000;strokeWidth=2;entryX=0.625;entryY=0.2;entryDx=0;entryDy=0;entryPerimeter=0;" parent="1" source="yYg9ebC0nji1FcP7OP8K-31" target="yYg9ebC0nji1FcP7OP8K-32" edge="1">
          <mxGeometry relative="1" as="geometry"/>
        </mxCell>
        <mxCell id="yYg9ebC0nji1FcP7OP8K-31" value="&lt;p style=&quot;margin: 4px 0px 0px ; font-size: 13px&quot;&gt;&lt;strong style=&quot;font-size: 13px&quot;&gt;&lt;i&gt;Fulfillment{}&lt;/i&gt;&lt;/strong&gt;&lt;/p&gt;&lt;hr style=&quot;font-size: 13px&quot;&gt;&lt;p style=&quot;margin: 0px 0px 0px 8px ; font-size: 13px&quot;&gt;轉達問題&lt;/p&gt;" style="verticalAlign=middle;align=center;overflow=fill;fontSize=13;fontFamily=Helvetica;html=1;rounded=1;fontStyle=1;strokeWidth=2;fillColor=#E6FFCC;strokeColor=#006600;" parent="1" vertex="1">
          <mxGeometry x="618.5" y="482" width="140" height="70" as="geometry"/>
        </mxCell>
        <mxCell id="cKvR1O95yhoSLGkfzM_e-2" value="" style="edgeStyle=none;rounded=1;orthogonalLoop=1;jettySize=auto;html=1;fontSize=13;strokeColor=#990000;strokeWidth=2;entryX=0.5;entryY=0;entryDx=0;entryDy=0;entryPerimeter=0;" parent="1" source="yYg9ebC0nji1FcP7OP8K-32" target="cKvR1O95yhoSLGkfzM_e-3" edge="1">
          <mxGeometry relative="1" as="geometry">
            <mxPoint x="675" y="740" as="targetPoint"/>
          </mxGeometry>
        </mxCell>
        <mxCell id="yYg9ebC0nji1FcP7OP8K-32" value="好的Richard Shih，已將您的問題&lt;br&gt;&quot; 要怎樣申請程式？&quot;&lt;br&gt;轉達給CMS系統PIC" style="ellipse;shape=cloud;whiteSpace=wrap;html=1;rounded=0;shadow=0;glass=0;comic=0;strokeColor=#D6B656;strokeWidth=2;fillColor=none;fontSize=14;" parent="1" vertex="1">
          <mxGeometry x="550" y="593" width="250" height="117" as="geometry"/>
        </mxCell>
        <mxCell id="qLVZKGaKp2njGoYdbKV3-10" value="&lt;b&gt;&lt;font style=&quot;font-size: 15px&quot;&gt;Yes&lt;/font&gt;&lt;/b&gt;" style="text;html=1;resizable=0;autosize=1;align=center;verticalAlign=middle;points=[];fillColor=none;strokeColor=none;rounded=0;shadow=0;fontSize=13;fontColor=#AE4132;" parent="1" vertex="1">
          <mxGeometry x="648.5" y="432" width="40" height="20" as="geometry"/>
        </mxCell>
        <mxCell id="qLVZKGaKp2njGoYdbKV3-11" value="&lt;b&gt;&lt;font style=&quot;font-size: 15px&quot;&gt;No&lt;/font&gt;&lt;/b&gt;" style="text;html=1;resizable=0;autosize=1;align=center;verticalAlign=middle;points=[];fillColor=none;strokeColor=none;rounded=0;shadow=0;fontSize=13;fontColor=#AE4132;" parent="1" vertex="1">
          <mxGeometry x="722" y="387" width="40" height="20" as="geometry"/>
        </mxCell>
        <mxCell id="cKvR1O95yhoSLGkfzM_e-3" value="&lt;p style=&quot;line-height: 100%; font-size: 18px;&quot;&gt;W&lt;/p&gt;" style="strokeWidth=2;html=1;shape=mxgraph.flowchart.decision;whiteSpace=wrap;shadow=0;fillColor=#fff2cc;fontSize=18;labelBorderColor=none;strokeColor=#d6b656;spacing=0;fontStyle=1;fontColor=#C2A54E;" parent="1" vertex="1">
          <mxGeometry x="645" y="746" width="60" height="60" as="geometry"/>
        </mxCell>
        <mxCell id="Vp6LMfSoQTpWz_okYLZy-10" value="" style="group" parent="1" vertex="1" connectable="0">
          <mxGeometry x="73" y="257" width="84" height="26" as="geometry"/>
        </mxCell>
        <mxCell id="Vp6LMfSoQTpWz_okYLZy-1" value="" style="shape=curlyBracket;whiteSpace=wrap;html=1;rounded=1;shadow=0;glass=0;comic=0;strokeColor=#4D4D4D;strokeWidth=2;fillColor=none;fontSize=14;align=right;" parent="Vp6LMfSoQTpWz_okYLZy-10" vertex="1">
          <mxGeometry width="9" height="26" as="geometry"/>
        </mxCell>
        <mxCell id="Vp6LMfSoQTpWz_okYLZy-2" value="" style="shape=curlyBracket;whiteSpace=wrap;html=1;rounded=1;shadow=0;glass=0;comic=0;strokeColor=#4D4D4D;strokeWidth=2;fillColor=none;fontSize=14;align=right;rotation=180;" parent="Vp6LMfSoQTpWz_okYLZy-10" vertex="1">
          <mxGeometry x="77" width="7" height="23" as="geometry"/>
        </mxCell>
        <mxCell id="Vp6LMfSoQTpWz_okYLZy-3" value="slot filling" style="text;resizable=0;autosize=1;align=center;verticalAlign=middle;points=[];fillColor=none;strokeColor=none;rounded=0;shadow=0;comic=0;fontSize=16;fontColor=#4D4D4D;fontStyle=2;" parent="Vp6LMfSoQTpWz_okYLZy-10" vertex="1">
          <mxGeometry x="7" y="1.5" width="70" height="20" as="geometry"/>
        </mxCell>
        <mxCell id="UQ71u5e0_fnWOc4kWjcs-4" value="" style="group" parent="1" vertex="1" connectable="0">
          <mxGeometry x="830.5" y="210" width="84" height="26" as="geometry"/>
        </mxCell>
        <mxCell id="UQ71u5e0_fnWOc4kWjcs-5" value="" style="shape=curlyBracket;whiteSpace=wrap;html=1;rounded=1;shadow=0;glass=0;comic=0;strokeColor=#4D4D4D;strokeWidth=2;fillColor=none;fontSize=14;align=right;" parent="UQ71u5e0_fnWOc4kWjcs-4" vertex="1">
          <mxGeometry width="9" height="26" as="geometry"/>
        </mxCell>
        <mxCell id="UQ71u5e0_fnWOc4kWjcs-6" value="" style="shape=curlyBracket;whiteSpace=wrap;html=1;rounded=1;shadow=0;glass=0;comic=0;strokeColor=#4D4D4D;strokeWidth=2;fillColor=none;fontSize=14;align=right;rotation=180;" parent="UQ71u5e0_fnWOc4kWjcs-4" vertex="1">
          <mxGeometry x="77" width="7" height="23" as="geometry"/>
        </mxCell>
        <mxCell id="UQ71u5e0_fnWOc4kWjcs-7" value="slot filling" style="text;resizable=0;autosize=1;align=center;verticalAlign=middle;points=[];fillColor=none;strokeColor=none;rounded=0;shadow=0;comic=0;fontSize=16;fontColor=#4D4D4D;fontStyle=2;" parent="UQ71u5e0_fnWOc4kWjcs-4" vertex="1">
          <mxGeometry x="7" y="1.5" width="70" height="20" as="geometry"/>
        </mxCell>
      </root>
    </mxGraphModel>
  </diagram>
  <diagram id="ZBpW3UwpYAJFGxqoSjzb" name="whl_report">
    <mxGraphModel dx="1108" dy="522" grid="1" gridSize="10" guides="1" tooltips="1" connect="1" arrows="1" fold="1" page="1" pageScale="1" pageWidth="1169" pageHeight="827" background="none" math="0" shadow="0">
      <root>
        <mxCell id="0ivfpPBr5skAcwwmlLvo-0"/>
        <mxCell id="0ivfpPBr5skAcwwmlLvo-1" parent="0ivfpPBr5skAcwwmlLvo-0"/>
        <mxCell id="IgGuuLYvyFryZc-H8myu-3" value="" style="rounded=1;arcSize=10;dashed=1;strokeColor=#000000;fillColor=#E6E6E6;gradientColor=none;strokeWidth=2;glass=0;opacity=35;" parent="0ivfpPBr5skAcwwmlLvo-1" vertex="1">
          <mxGeometry x="942" y="403" width="110" height="70" as="geometry"/>
        </mxCell>
        <mxCell id="IgGuuLYvyFryZc-H8myu-2" value="" style="rounded=1;arcSize=10;dashed=1;strokeColor=#000000;fillColor=#E6E6E6;gradientColor=none;strokeWidth=2;glass=0;opacity=35;" parent="0ivfpPBr5skAcwwmlLvo-1" vertex="1">
          <mxGeometry x="602.5" y="443.5" width="110" height="70" as="geometry"/>
        </mxCell>
        <mxCell id="IgGuuLYvyFryZc-H8myu-0" value="" style="rounded=1;arcSize=10;dashed=1;strokeColor=#000000;fillColor=#E6E6E6;gradientColor=none;strokeWidth=2;glass=0;opacity=35;" parent="0ivfpPBr5skAcwwmlLvo-1" vertex="1">
          <mxGeometry x="49" y="395" width="110" height="70" as="geometry"/>
        </mxCell>
        <mxCell id="umgyrOQeBr-jDIExZj-T-0" value="&lt;p style=&quot;margin: 4px 0px 0px ; font-size: 13px&quot;&gt;&lt;b style=&quot;font-size: 13px&quot;&gt;&lt;i style=&quot;font-size: 13px&quot;&gt;Intent&lt;/i&gt;&lt;/b&gt;&lt;/p&gt;&lt;hr style=&quot;font-size: 13px&quot;&gt;&lt;div style=&quot;height: 2px ; font-size: 13px&quot;&gt;表列RS&lt;/div&gt;" style="verticalAlign=top;align=center;overflow=fill;fontSize=13;fontFamily=Helvetica;html=1;fillColor=#fff2cc;strokeColor=#d6b656;gradientColor=none;strokeWidth=2;" parent="0ivfpPBr5skAcwwmlLvo-1" vertex="1">
          <mxGeometry x="181" y="280" width="117" height="60" as="geometry"/>
        </mxCell>
        <mxCell id="umgyrOQeBr-jDIExZj-T-4" value="&lt;b&gt;&lt;i&gt;Intent&lt;/i&gt;&lt;/b&gt;&lt;br&gt;&lt;hr&gt;開啟/關閉RS" style="verticalAlign=top;align=center;overflow=fill;fontSize=13;fontFamily=Helvetica;fillColor=#fff2cc;strokeColor=#d6b656;gradientColor=none;strokeWidth=2;html=1;" parent="0ivfpPBr5skAcwwmlLvo-1" vertex="1">
          <mxGeometry x="470" y="339" width="122" height="61" as="geometry"/>
        </mxCell>
        <mxCell id="umgyrOQeBr-jDIExZj-T-6" value="&lt;p style=&quot;margin: 4px 0px 0px ; font-size: 13px&quot;&gt;&lt;b style=&quot;font-size: 13px&quot;&gt;&lt;i style=&quot;font-size: 13px&quot;&gt;Intent&lt;/i&gt;&lt;/b&gt;&lt;/p&gt;&lt;hr style=&quot;font-size: 13px&quot;&gt;&lt;div style=&quot;height: 2px ; font-size: 13px&quot;&gt;取得特定RS資訊&lt;/div&gt;" style="verticalAlign=top;align=center;overflow=fill;fontSize=13;fontFamily=Helvetica;html=1;fillColor=#fff2cc;strokeColor=#d6b656;strokeWidth=2;" parent="0ivfpPBr5skAcwwmlLvo-1" vertex="1">
          <mxGeometry x="822" y="278.5" width="110" height="60" as="geometry"/>
        </mxCell>
        <mxCell id="L9RRq6yBFp1nKZq4xnOs-0" value="" style="verticalLabelPosition=bottom;html=1;verticalAlign=top;align=center;strokeColor=#6c8ebf;fillColor=#dae8fc;shape=mxgraph.azure.user;strokeWidth=2;" parent="0ivfpPBr5skAcwwmlLvo-1" vertex="1">
          <mxGeometry x="40" y="20" width="67" height="70" as="geometry"/>
        </mxCell>
        <mxCell id="6LbejTVu53MiOaFEW909-0" value="&lt;p style=&quot;line-height: 100%&quot;&gt;&lt;br&gt;&lt;/p&gt;" style="strokeWidth=2;html=1;shape=mxgraph.flowchart.decision;whiteSpace=wrap;shadow=0;fillColor=#fad9d5;fontSize=13;labelBorderColor=none;strokeColor=#ae4132;spacing=0;" parent="0ivfpPBr5skAcwwmlLvo-1" vertex="1">
          <mxGeometry x="210" y="400" width="60" height="60" as="geometry"/>
        </mxCell>
        <mxCell id="GGoVLLC3CAuERJFWFjjY-0" value="" style="strokeColor=#990000;strokeWidth=2;exitX=0.5;exitY=1;exitDx=0;exitDy=0;entryX=0.5;entryY=0;entryDx=0;entryDy=0;rounded=1;edgeStyle=elbowEdgeStyle;elbow=vertical;fontSize=13;entryPerimeter=0;" parent="0ivfpPBr5skAcwwmlLvo-1" source="umgyrOQeBr-jDIExZj-T-0" target="6LbejTVu53MiOaFEW909-0" edge="1">
          <mxGeometry width="100" height="100" relative="1" as="geometry">
            <mxPoint x="110" y="420" as="sourcePoint"/>
            <mxPoint x="380" y="600" as="targetPoint"/>
          </mxGeometry>
        </mxCell>
        <mxCell id="34MEBnVgbnuP10-SyGdb-0" value="&lt;p style=&quot;margin: 4px 0px 0px ; font-size: 13px&quot;&gt;&lt;strong style=&quot;font-size: 13px&quot;&gt;&lt;i&gt;Fulfillment{}&lt;/i&gt;&lt;/strong&gt;&lt;/p&gt;&lt;hr style=&quot;font-size: 13px&quot;&gt;&lt;p style=&quot;margin: 0px 0px 0px 8px ; font-size: 13px&quot;&gt;表列RS&lt;/p&gt;" style="verticalAlign=middle;align=center;overflow=fill;fontSize=13;fontFamily=Helvetica;html=1;rounded=1;fontStyle=1;strokeWidth=2;fillColor=#E6FFCC;strokeColor=#006600;" parent="0ivfpPBr5skAcwwmlLvo-1" vertex="1">
          <mxGeometry x="170" y="510" width="140" height="60" as="geometry"/>
        </mxCell>
        <mxCell id="34MEBnVgbnuP10-SyGdb-1" value="" style="strokeColor=#990000;strokeWidth=2;exitX=0.5;exitY=1;exitDx=0;exitDy=0;entryX=0.5;entryY=0;entryDx=0;entryDy=0;rounded=1;edgeStyle=elbowEdgeStyle;elbow=vertical;fontSize=13;exitPerimeter=0;" parent="0ivfpPBr5skAcwwmlLvo-1" source="6LbejTVu53MiOaFEW909-0" target="34MEBnVgbnuP10-SyGdb-0" edge="1">
          <mxGeometry width="100" height="100" relative="1" as="geometry">
            <mxPoint x="400" y="520" as="sourcePoint"/>
            <mxPoint x="400" y="610" as="targetPoint"/>
          </mxGeometry>
        </mxCell>
        <mxCell id="34MEBnVgbnuP10-SyGdb-2" value="&lt;b&gt;&lt;font style=&quot;font-size: 15px&quot;&gt;Yes&lt;/font&gt;&lt;/b&gt;" style="text;html=1;resizable=0;autosize=1;align=center;verticalAlign=middle;points=[];fillColor=none;strokeColor=none;rounded=0;shadow=0;fontSize=13;fontColor=#AE4132;" parent="0ivfpPBr5skAcwwmlLvo-1" vertex="1">
          <mxGeometry x="240" y="470" width="40" height="20" as="geometry"/>
        </mxCell>
        <mxCell id="34MEBnVgbnuP10-SyGdb-3" value="&lt;span&gt;&lt;font style=&quot;font-size: 14px&quot;&gt;&amp;nbsp;&lt;br&gt;Office Code?&lt;/font&gt;&lt;/span&gt;" style="text;html=1;resizable=0;autosize=1;align=center;verticalAlign=middle;points=[];fillColor=none;strokeColor=none;rounded=0;shadow=0;fontSize=13;fontStyle=0;fontColor=#AE4132;" parent="0ivfpPBr5skAcwwmlLvo-1" vertex="1">
          <mxGeometry x="248" y="380" width="100" height="40" as="geometry"/>
        </mxCell>
        <mxCell id="0UQkhSvVaB_1mdY3n597-1" value="" style="strokeColor=#990000;strokeWidth=2;exitX=0;exitY=0.5;exitDx=0;exitDy=0;rounded=1;edgeStyle=orthogonalEdgeStyle;elbow=vertical;fontSize=13;exitPerimeter=0;entryX=1;entryY=0.5;entryDx=0;entryDy=0;" parent="0ivfpPBr5skAcwwmlLvo-1" source="6LbejTVu53MiOaFEW909-0" target="IgGuuLYvyFryZc-H8myu-0" edge="1">
          <mxGeometry width="100" height="100" relative="1" as="geometry">
            <mxPoint x="250" y="330" as="sourcePoint"/>
            <mxPoint x="180" y="400" as="targetPoint"/>
          </mxGeometry>
        </mxCell>
        <mxCell id="0UQkhSvVaB_1mdY3n597-2" value="&lt;b&gt;&lt;font style=&quot;font-size: 15px&quot;&gt;No&lt;/font&gt;&lt;/b&gt;" style="text;html=1;resizable=0;autosize=1;align=center;verticalAlign=middle;points=[];fillColor=none;strokeColor=none;rounded=0;shadow=0;fontSize=13;fontColor=#AE4132;" parent="0ivfpPBr5skAcwwmlLvo-1" vertex="1">
          <mxGeometry x="180" y="434" width="40" height="20" as="geometry"/>
        </mxCell>
        <mxCell id="0UQkhSvVaB_1mdY3n597-4" value="&lt;p style=&quot;line-height: 100%&quot;&gt;&lt;br&gt;&lt;/p&gt;" style="strokeWidth=2;html=1;shape=mxgraph.flowchart.decision;whiteSpace=wrap;shadow=0;fillColor=#fad9d5;fontSize=13;labelBorderColor=none;strokeColor=#ae4132;spacing=0;" parent="0ivfpPBr5skAcwwmlLvo-1" vertex="1">
          <mxGeometry x="847" y="408" width="60" height="60" as="geometry"/>
        </mxCell>
        <mxCell id="0UQkhSvVaB_1mdY3n597-5" value="&lt;span&gt;&lt;font style=&quot;font-size: 14px&quot;&gt;RS Code?&lt;/font&gt;&lt;/span&gt;" style="text;html=1;resizable=0;autosize=1;align=center;verticalAlign=middle;points=[];fillColor=none;strokeColor=none;rounded=0;shadow=0;fontSize=13;fontStyle=0;comic=0;fontColor=#AE4132;" parent="0ivfpPBr5skAcwwmlLvo-1" vertex="1">
          <mxGeometry x="789" y="397" width="80" height="20" as="geometry"/>
        </mxCell>
        <mxCell id="0UQkhSvVaB_1mdY3n597-6" value="&lt;p style=&quot;margin: 4px 0px 0px ; font-size: 13px&quot;&gt;&lt;strong style=&quot;font-size: 13px&quot;&gt;Fulfillment{}&lt;/strong&gt;&lt;/p&gt;&lt;hr style=&quot;font-size: 13px&quot;&gt;&lt;p style=&quot;margin: 0px 0px 0px 8px ; font-size: 13px&quot;&gt;取得特定RS 資訊&amp;nbsp;&lt;/p&gt;" style="verticalAlign=middle;align=center;overflow=fill;fontSize=13;fontFamily=Helvetica;html=1;rounded=1;fontStyle=1;strokeWidth=2;fillColor=#E6FFCC;strokeColor=#006600;" parent="0ivfpPBr5skAcwwmlLvo-1" vertex="1">
          <mxGeometry x="802" y="518" width="150" height="65" as="geometry"/>
        </mxCell>
        <mxCell id="0UQkhSvVaB_1mdY3n597-7" value="" style="strokeColor=#990000;strokeWidth=2;exitX=0.5;exitY=1;exitDx=0;exitDy=0;entryX=0.5;entryY=0;entryDx=0;entryDy=0;rounded=1;edgeStyle=elbowEdgeStyle;elbow=vertical;fontSize=13;exitPerimeter=0;" parent="0ivfpPBr5skAcwwmlLvo-1" source="0UQkhSvVaB_1mdY3n597-4" target="0UQkhSvVaB_1mdY3n597-6" edge="1">
          <mxGeometry width="100" height="100" relative="1" as="geometry">
            <mxPoint x="942" y="462" as="sourcePoint"/>
            <mxPoint x="942" y="552" as="targetPoint"/>
          </mxGeometry>
        </mxCell>
        <mxCell id="0UQkhSvVaB_1mdY3n597-8" value="&lt;b&gt;&lt;font style=&quot;font-size: 15px&quot;&gt;Yes&lt;/font&gt;&lt;/b&gt;" style="text;html=1;resizable=0;autosize=1;align=center;verticalAlign=middle;points=[];fillColor=none;strokeColor=none;rounded=0;shadow=0;fontSize=13;fontColor=#AE4132;" parent="0ivfpPBr5skAcwwmlLvo-1" vertex="1">
          <mxGeometry x="881" y="488" width="40" height="20" as="geometry"/>
        </mxCell>
        <mxCell id="0UQkhSvVaB_1mdY3n597-9" value="" style="strokeColor=#990000;strokeWidth=2;exitX=0.5;exitY=1;exitDx=0;exitDy=0;rounded=1;edgeStyle=elbowEdgeStyle;elbow=vertical;fontSize=13;entryX=0.5;entryY=0;entryDx=0;entryDy=0;entryPerimeter=0;" parent="0ivfpPBr5skAcwwmlLvo-1" source="umgyrOQeBr-jDIExZj-T-6" target="0UQkhSvVaB_1mdY3n597-4" edge="1">
          <mxGeometry width="100" height="100" relative="1" as="geometry">
            <mxPoint x="892" y="348" as="sourcePoint"/>
            <mxPoint x="892" y="418" as="targetPoint"/>
          </mxGeometry>
        </mxCell>
        <mxCell id="0UQkhSvVaB_1mdY3n597-12" value="&lt;b&gt;&lt;font style=&quot;font-size: 15px&quot;&gt;No&lt;/font&gt;&lt;/b&gt;" style="text;html=1;resizable=0;autosize=1;align=center;verticalAlign=middle;points=[];fillColor=none;strokeColor=none;rounded=0;shadow=0;fontSize=13;fontColor=#AE4132;" parent="0ivfpPBr5skAcwwmlLvo-1" vertex="1">
          <mxGeometry x="902" y="443" width="40" height="20" as="geometry"/>
        </mxCell>
        <mxCell id="0UQkhSvVaB_1mdY3n597-14" value="" style="strokeColor=#990000;strokeWidth=2;rounded=1;edgeStyle=orthogonalEdgeStyle;elbow=vertical;fontSize=13;entryX=0.5;entryY=0;entryDx=0;entryDy=0;entryPerimeter=0;exitX=0.5;exitY=0;exitDx=0;exitDy=0;" parent="0ivfpPBr5skAcwwmlLvo-1" source="IgGuuLYvyFryZc-H8myu-3" target="0UQkhSvVaB_1mdY3n597-4" edge="1">
          <mxGeometry width="100" height="100" relative="1" as="geometry">
            <mxPoint x="1064" y="528" as="sourcePoint"/>
            <mxPoint x="1157" y="408" as="targetPoint"/>
            <Array as="points">
              <mxPoint x="997" y="380"/>
              <mxPoint x="877" y="380"/>
            </Array>
          </mxGeometry>
        </mxCell>
        <mxCell id="0UQkhSvVaB_1mdY3n597-15" value="目前有多少台&lt;br&gt;Report Server?" style="ellipse;shape=cloud;whiteSpace=wrap;html=1;rounded=0;shadow=0;glass=0;comic=0;strokeColor=#10739e;strokeWidth=2;fillColor=none;fontSize=14;" parent="0ivfpPBr5skAcwwmlLvo-1" vertex="1">
          <mxGeometry x="157" y="170" width="150" height="90" as="geometry"/>
        </mxCell>
        <mxCell id="0UQkhSvVaB_1mdY3n597-22" value="" style="strokeColor=#990000;strokeWidth=2;exitX=0.55;exitY=0.95;exitDx=0;exitDy=0;entryX=0.5;entryY=0;entryDx=0;entryDy=0;rounded=1;edgeStyle=elbowEdgeStyle;elbow=vertical;fontSize=13;exitPerimeter=0;" parent="0ivfpPBr5skAcwwmlLvo-1" source="0UQkhSvVaB_1mdY3n597-15" target="umgyrOQeBr-jDIExZj-T-0" edge="1">
          <mxGeometry width="100" height="100" relative="1" as="geometry">
            <mxPoint x="250" y="350" as="sourcePoint"/>
            <mxPoint x="250" y="460" as="targetPoint"/>
          </mxGeometry>
        </mxCell>
        <mxCell id="0UQkhSvVaB_1mdY3n597-34" value="目前TWTPE01&lt;br&gt;RS狀態如下:&lt;br&gt;............" style="ellipse;shape=cloud;whiteSpace=wrap;html=1;rounded=0;shadow=0;glass=0;comic=0;strokeColor=#D6B656;strokeWidth=2;fillColor=none;fontSize=14;" parent="0ivfpPBr5skAcwwmlLvo-1" vertex="1">
          <mxGeometry x="165" y="620" width="147" height="90" as="geometry"/>
        </mxCell>
        <mxCell id="0UQkhSvVaB_1mdY3n597-35" value="" style="strokeColor=#990000;strokeWidth=2;exitX=0.5;exitY=1;exitDx=0;exitDy=0;entryX=0.513;entryY=0.078;entryDx=0;entryDy=0;rounded=1;edgeStyle=elbowEdgeStyle;elbow=vertical;fontSize=13;entryPerimeter=0;" parent="0ivfpPBr5skAcwwmlLvo-1" source="34MEBnVgbnuP10-SyGdb-0" target="0UQkhSvVaB_1mdY3n597-34" edge="1">
          <mxGeometry width="100" height="100" relative="1" as="geometry">
            <mxPoint x="453" y="565" as="sourcePoint"/>
            <mxPoint x="440" y="609" as="targetPoint"/>
          </mxGeometry>
        </mxCell>
        <mxCell id="0UQkhSvVaB_1mdY3n597-36" value="" style="strokeColor=#AE4132;strokeWidth=2;exitX=0.5;exitY=0;exitDx=0;exitDy=0;edgeStyle=orthogonalEdgeStyle;elbow=vertical;fontSize=13;jumpStyle=none;comic=0;rounded=1;" parent="0ivfpPBr5skAcwwmlLvo-1" source="IgGuuLYvyFryZc-H8myu-0" edge="1">
          <mxGeometry width="100" height="100" relative="1" as="geometry">
            <mxPoint x="41" y="506" as="sourcePoint"/>
            <mxPoint x="240" y="400" as="targetPoint"/>
            <Array as="points">
              <mxPoint x="104" y="370"/>
              <mxPoint x="240" y="370"/>
            </Array>
          </mxGeometry>
        </mxCell>
        <mxCell id="0UQkhSvVaB_1mdY3n597-41" value="哈囉!" style="ellipse;shape=cloud;whiteSpace=wrap;html=1;rounded=0;shadow=0;glass=0;comic=0;strokeColor=#10739e;strokeWidth=2;fillColor=none;fontSize=14;" parent="0ivfpPBr5skAcwwmlLvo-1" vertex="1">
          <mxGeometry x="157" y="42" width="80" height="60" as="geometry"/>
        </mxCell>
        <mxCell id="0UQkhSvVaB_1mdY3n597-42" value="" style="strokeColor=#AE4132;strokeWidth=2;exitX=0.87;exitY=0.65;exitDx=0;exitDy=0;rounded=1;edgeStyle=elbowEdgeStyle;fontSize=13;exitPerimeter=0;entryX=0.07;entryY=0.4;entryDx=0;entryDy=0;entryPerimeter=0;" parent="0ivfpPBr5skAcwwmlLvo-1" source="L9RRq6yBFp1nKZq4xnOs-0" target="0UQkhSvVaB_1mdY3n597-41" edge="1">
          <mxGeometry width="100" height="100" relative="1" as="geometry">
            <mxPoint x="303" y="216" as="sourcePoint"/>
            <mxPoint x="150" y="66" as="targetPoint"/>
          </mxGeometry>
        </mxCell>
        <mxCell id="0UQkhSvVaB_1mdY3n597-44" value="&lt;p style=&quot;margin: 4px 0px 0px ; font-size: 13px&quot;&gt;&lt;b style=&quot;font-size: 13px&quot;&gt;&lt;i style=&quot;font-size: 13px&quot;&gt;Intent&lt;/i&gt;&lt;/b&gt;&lt;/p&gt;&lt;hr style=&quot;font-size: 13px&quot;&gt;&lt;div style=&quot;height: 2px ; font-size: 13px&quot;&gt;Welcome&lt;/div&gt;" style="verticalAlign=top;align=center;overflow=fill;fontSize=13;fontFamily=Helvetica;html=1;fillColor=#fff2cc;strokeColor=#d6b656;strokeWidth=2;" parent="0ivfpPBr5skAcwwmlLvo-1" vertex="1">
          <mxGeometry x="320" y="42" width="90" height="60" as="geometry"/>
        </mxCell>
        <mxCell id="0UQkhSvVaB_1mdY3n597-46" value="&lt;p style=&quot;line-height: 100%; font-size: 18px;&quot;&gt;W&lt;/p&gt;" style="strokeWidth=2;html=1;shape=mxgraph.flowchart.decision;whiteSpace=wrap;shadow=0;fillColor=#fff2cc;fontSize=18;labelBorderColor=none;strokeColor=#d6b656;spacing=0;fontStyle=1;fontColor=#C2A54E;" parent="0ivfpPBr5skAcwwmlLvo-1" vertex="1">
          <mxGeometry x="567" y="135.5" width="60" height="60" as="geometry"/>
        </mxCell>
        <mxCell id="0UQkhSvVaB_1mdY3n597-47" value="" style="strokeColor=#AE4132;strokeWidth=2;entryX=0;entryY=0.5;entryDx=0;entryDy=0;rounded=1;edgeStyle=elbowEdgeStyle;fontSize=13;exitX=0.875;exitY=0.5;exitDx=0;exitDy=0;exitPerimeter=0;" parent="0ivfpPBr5skAcwwmlLvo-1" source="0UQkhSvVaB_1mdY3n597-41" target="0UQkhSvVaB_1mdY3n597-44" edge="1">
          <mxGeometry width="100" height="100" relative="1" as="geometry">
            <mxPoint x="250" y="50" as="sourcePoint"/>
            <mxPoint x="312" y="59.5" as="targetPoint"/>
          </mxGeometry>
        </mxCell>
        <mxCell id="0UQkhSvVaB_1mdY3n597-48" value="" style="strokeColor=#AE4132;strokeWidth=2;exitX=1;exitY=0.5;exitDx=0;exitDy=0;entryX=0.07;entryY=0.4;entryDx=0;entryDy=0;rounded=1;edgeStyle=elbowEdgeStyle;fontSize=13;entryPerimeter=0;" parent="0ivfpPBr5skAcwwmlLvo-1" source="0UQkhSvVaB_1mdY3n597-44" target="0UQkhSvVaB_1mdY3n597-49" edge="1">
          <mxGeometry width="100" height="100" relative="1" as="geometry">
            <mxPoint x="440" y="64" as="sourcePoint"/>
            <mxPoint x="512" y="64" as="targetPoint"/>
          </mxGeometry>
        </mxCell>
        <mxCell id="0UQkhSvVaB_1mdY3n597-49" value="您好，有甚麼可以&lt;br&gt;幫助您的?" style="ellipse;shape=cloud;whiteSpace=wrap;html=1;rounded=0;shadow=0;glass=0;comic=0;strokeColor=#D6B656;strokeWidth=2;fillColor=none;fontSize=14;" parent="0ivfpPBr5skAcwwmlLvo-1" vertex="1">
          <mxGeometry x="510.5" y="15" width="157" height="100" as="geometry"/>
        </mxCell>
        <mxCell id="0UQkhSvVaB_1mdY3n597-50" value="" style="strokeColor=#AE4132;strokeWidth=2;exitX=0.55;exitY=0.95;exitDx=0;exitDy=0;entryX=0.5;entryY=0;entryDx=0;entryDy=0;rounded=1;edgeStyle=orthogonalEdgeStyle;fontSize=13;exitPerimeter=0;entryPerimeter=0;" parent="0ivfpPBr5skAcwwmlLvo-1" source="0UQkhSvVaB_1mdY3n597-49" target="0UQkhSvVaB_1mdY3n597-46" edge="1">
          <mxGeometry width="100" height="100" relative="1" as="geometry">
            <mxPoint x="667.5" y="65" as="sourcePoint"/>
            <mxPoint x="739.5" y="65" as="targetPoint"/>
          </mxGeometry>
        </mxCell>
        <mxCell id="0UQkhSvVaB_1mdY3n597-53" value="" style="strokeColor=#990000;strokeWidth=2;exitX=0.55;exitY=0.95;exitDx=0;exitDy=0;rounded=1;edgeStyle=elbowEdgeStyle;elbow=vertical;fontSize=13;exitPerimeter=0;entryX=0.5;entryY=0;entryDx=0;entryDy=0;entryPerimeter=0;" parent="0ivfpPBr5skAcwwmlLvo-1" source="0UQkhSvVaB_1mdY3n597-34" target="0UQkhSvVaB_1mdY3n597-54" edge="1">
          <mxGeometry width="100" height="100" relative="1" as="geometry">
            <mxPoint x="494" y="632.5" as="sourcePoint"/>
            <mxPoint x="230" y="740" as="targetPoint"/>
          </mxGeometry>
        </mxCell>
        <mxCell id="0UQkhSvVaB_1mdY3n597-54" value="&lt;p style=&quot;line-height: 100%; font-size: 18px;&quot;&gt;W&lt;/p&gt;" style="strokeWidth=2;html=1;shape=mxgraph.flowchart.decision;whiteSpace=wrap;shadow=0;fillColor=#fff2cc;fontSize=18;labelBorderColor=none;strokeColor=#d6b656;spacing=0;fontStyle=1;fontColor=#C2A54E;" parent="0ivfpPBr5skAcwwmlLvo-1" vertex="1">
          <mxGeometry x="215.5" y="740" width="60" height="60" as="geometry"/>
        </mxCell>
        <mxCell id="VDIvDdAqKzBQ3UfRSM_H-0" value="tperp01目前&lt;br&gt;有問題嗎?" style="ellipse;shape=cloud;whiteSpace=wrap;html=1;rounded=0;shadow=0;glass=0;comic=0;strokeColor=#10739e;strokeWidth=2;fillColor=none;fontSize=14;" parent="0ivfpPBr5skAcwwmlLvo-1" vertex="1">
          <mxGeometry x="787" y="163.5" width="164" height="90" as="geometry"/>
        </mxCell>
        <mxCell id="VDIvDdAqKzBQ3UfRSM_H-6" value="" style="strokeColor=#990000;strokeWidth=2;exitX=0.55;exitY=0.95;exitDx=0;exitDy=0;entryX=0.5;entryY=0;entryDx=0;entryDy=0;rounded=1;edgeStyle=elbowEdgeStyle;elbow=vertical;fontSize=13;exitPerimeter=0;" parent="0ivfpPBr5skAcwwmlLvo-1" source="VDIvDdAqKzBQ3UfRSM_H-0" target="umgyrOQeBr-jDIExZj-T-6" edge="1">
          <mxGeometry width="100" height="100" relative="1" as="geometry">
            <mxPoint x="929" y="303" as="sourcePoint"/>
            <mxPoint x="916" y="347" as="targetPoint"/>
            <Array as="points"/>
          </mxGeometry>
        </mxCell>
        <mxCell id="VDIvDdAqKzBQ3UfRSM_H-7" value="tperp01&lt;br&gt;目前狀態active, &lt;br&gt;其他狀態如下..." style="ellipse;shape=cloud;whiteSpace=wrap;html=1;rounded=0;shadow=0;glass=0;comic=0;strokeColor=#D6B656;strokeWidth=2;fillColor=none;fontSize=14;" parent="0ivfpPBr5skAcwwmlLvo-1" vertex="1">
          <mxGeometry x="780" y="623" width="190" height="87" as="geometry"/>
        </mxCell>
        <mxCell id="VDIvDdAqKzBQ3UfRSM_H-8" value="" style="strokeColor=#990000;strokeWidth=2;exitX=0.5;exitY=1;exitDx=0;exitDy=0;entryX=0.513;entryY=0.078;entryDx=0;entryDy=0;rounded=1;edgeStyle=elbowEdgeStyle;elbow=vertical;fontSize=13;entryPerimeter=0;" parent="0ivfpPBr5skAcwwmlLvo-1" source="0UQkhSvVaB_1mdY3n597-6" target="VDIvDdAqKzBQ3UfRSM_H-7" edge="1">
          <mxGeometry width="100" height="100" relative="1" as="geometry">
            <mxPoint x="880" y="613" as="sourcePoint"/>
            <mxPoint x="1080" y="652" as="targetPoint"/>
          </mxGeometry>
        </mxCell>
        <mxCell id="VDIvDdAqKzBQ3UfRSM_H-9" value="" style="strokeColor=#990000;strokeWidth=2;exitX=0.55;exitY=0.95;exitDx=0;exitDy=0;rounded=1;edgeStyle=elbowEdgeStyle;elbow=vertical;fontSize=13;exitPerimeter=0;entryX=0.5;entryY=0;entryDx=0;entryDy=0;entryPerimeter=0;" parent="0ivfpPBr5skAcwwmlLvo-1" source="VDIvDdAqKzBQ3UfRSM_H-7" target="VDIvDdAqKzBQ3UfRSM_H-10" edge="1">
          <mxGeometry width="100" height="100" relative="1" as="geometry">
            <mxPoint x="854.5" y="701" as="sourcePoint"/>
            <mxPoint x="838.5" y="735" as="targetPoint"/>
          </mxGeometry>
        </mxCell>
        <mxCell id="VDIvDdAqKzBQ3UfRSM_H-10" value="&lt;p style=&quot;line-height: 100%; font-size: 18px;&quot;&gt;W&lt;/p&gt;" style="strokeWidth=2;html=1;shape=mxgraph.flowchart.decision;whiteSpace=wrap;shadow=0;fillColor=#fff2cc;fontSize=18;labelBorderColor=none;strokeColor=#d6b656;spacing=0;fontStyle=1;fontColor=#C2A54E;" parent="0ivfpPBr5skAcwwmlLvo-1" vertex="1">
          <mxGeometry x="855" y="735" width="60" height="60" as="geometry"/>
        </mxCell>
        <mxCell id="VDIvDdAqKzBQ3UfRSM_H-14" value="" style="strokeColor=#990000;strokeWidth=2;exitX=0;exitY=0.5;exitDx=0;exitDy=0;rounded=1;edgeStyle=elbowEdgeStyle;fontSize=13;exitPerimeter=0;entryX=0.96;entryY=0.7;entryDx=0;entryDy=0;entryPerimeter=0;" parent="0ivfpPBr5skAcwwmlLvo-1" source="0UQkhSvVaB_1mdY3n597-46" target="0UQkhSvVaB_1mdY3n597-15" edge="1">
          <mxGeometry width="100" height="100" relative="1" as="geometry">
            <mxPoint x="303" y="246" as="sourcePoint"/>
            <mxPoint x="450" y="250" as="targetPoint"/>
          </mxGeometry>
        </mxCell>
        <mxCell id="VDIvDdAqKzBQ3UfRSM_H-15" value="" style="strokeColor=#990000;strokeWidth=2;exitX=1;exitY=0.5;exitDx=0;exitDy=0;rounded=1;edgeStyle=elbowEdgeStyle;fontSize=13;exitPerimeter=0;entryX=0.07;entryY=0.4;entryDx=0;entryDy=0;entryPerimeter=0;" parent="0ivfpPBr5skAcwwmlLvo-1" source="0UQkhSvVaB_1mdY3n597-46" target="VDIvDdAqKzBQ3UfRSM_H-0" edge="1">
          <mxGeometry width="100" height="100" relative="1" as="geometry">
            <mxPoint x="737" y="295" as="sourcePoint"/>
            <mxPoint x="524" y="322" as="targetPoint"/>
          </mxGeometry>
        </mxCell>
        <mxCell id="VDIvDdAqKzBQ3UfRSM_H-16" value="請幫我&lt;br&gt;開啟/關閉RS" style="ellipse;shape=cloud;whiteSpace=wrap;html=1;rounded=0;shadow=0;glass=0;comic=0;strokeColor=#10739e;strokeWidth=2;fillColor=none;fontSize=14;" parent="0ivfpPBr5skAcwwmlLvo-1" vertex="1">
          <mxGeometry x="441" y="225" width="164" height="90" as="geometry"/>
        </mxCell>
        <mxCell id="NKnbBvsXSK_pB3nqTvZj-0" value="" style="strokeColor=#990000;strokeWidth=2;exitX=0.55;exitY=0.95;exitDx=0;exitDy=0;entryX=0.5;entryY=0;entryDx=0;entryDy=0;rounded=1;edgeStyle=elbowEdgeStyle;elbow=vertical;fontSize=13;exitPerimeter=0;" parent="0ivfpPBr5skAcwwmlLvo-1" target="umgyrOQeBr-jDIExZj-T-4" edge="1">
          <mxGeometry width="100" height="100" relative="1" as="geometry">
            <mxPoint x="531" y="311" as="sourcePoint"/>
            <mxPoint x="527" y="377" as="targetPoint"/>
          </mxGeometry>
        </mxCell>
        <mxCell id="NKnbBvsXSK_pB3nqTvZj-1" value="&lt;p style=&quot;margin: 4px 0px 0px ; font-size: 13px&quot;&gt;&lt;strong style=&quot;font-size: 13px&quot;&gt;Fulfillment{}&lt;/strong&gt;&lt;/p&gt;&lt;hr style=&quot;font-size: 13px&quot;&gt;&lt;p style=&quot;margin: 0px 0px 0px 8px ; font-size: 13px&quot;&gt;開啟/關閉 RS&lt;/p&gt;" style="verticalAlign=middle;align=center;overflow=fill;fontSize=13;fontFamily=Helvetica;html=1;rounded=1;fontStyle=1;strokeWidth=2;fillColor=#E6FFCC;strokeColor=#006600;" parent="0ivfpPBr5skAcwwmlLvo-1" vertex="1">
          <mxGeometry x="459" y="548" width="143" height="65" as="geometry"/>
        </mxCell>
        <mxCell id="NKnbBvsXSK_pB3nqTvZj-2" value="&lt;p style=&quot;line-height: 100%&quot;&gt;&lt;br&gt;&lt;/p&gt;" style="strokeWidth=2;html=1;shape=mxgraph.flowchart.decision;whiteSpace=wrap;shadow=0;fillColor=#fad9d5;fontSize=13;labelBorderColor=none;strokeColor=#ae4132;spacing=0;" parent="0ivfpPBr5skAcwwmlLvo-1" vertex="1">
          <mxGeometry x="501" y="448.5" width="60" height="60" as="geometry"/>
        </mxCell>
        <mxCell id="NKnbBvsXSK_pB3nqTvZj-3" value="" style="strokeColor=#990000;strokeWidth=2;exitX=0.5;exitY=1;exitDx=0;exitDy=0;entryX=0.5;entryY=0;entryDx=0;entryDy=0;rounded=1;edgeStyle=elbowEdgeStyle;elbow=vertical;fontSize=13;entryPerimeter=0;" parent="0ivfpPBr5skAcwwmlLvo-1" source="umgyrOQeBr-jDIExZj-T-4" target="NKnbBvsXSK_pB3nqTvZj-2" edge="1">
          <mxGeometry width="100" height="100" relative="1" as="geometry">
            <mxPoint x="570" y="423" as="sourcePoint"/>
            <mxPoint x="570" y="456" as="targetPoint"/>
          </mxGeometry>
        </mxCell>
        <mxCell id="NKnbBvsXSK_pB3nqTvZj-4" value="" style="strokeColor=#990000;strokeWidth=2;exitX=0.5;exitY=1;exitDx=0;exitDy=0;entryX=0.5;entryY=0;entryDx=0;entryDy=0;rounded=1;edgeStyle=elbowEdgeStyle;elbow=vertical;fontSize=13;exitPerimeter=0;" parent="0ivfpPBr5skAcwwmlLvo-1" source="NKnbBvsXSK_pB3nqTvZj-2" target="NKnbBvsXSK_pB3nqTvZj-1" edge="1">
          <mxGeometry width="100" height="100" relative="1" as="geometry">
            <mxPoint x="560.5" y="508.5" as="sourcePoint"/>
            <mxPoint x="560.5" y="548.5" as="targetPoint"/>
          </mxGeometry>
        </mxCell>
        <mxCell id="NKnbBvsXSK_pB3nqTvZj-5" value="&lt;span&gt;&lt;font style=&quot;font-size: 14px&quot;&gt;RS Code?&lt;/font&gt;&lt;/span&gt;" style="text;html=1;resizable=0;autosize=1;align=center;verticalAlign=middle;points=[];fillColor=none;strokeColor=none;rounded=0;shadow=0;fontSize=13;fontStyle=0;comic=0;fontColor=#AE4132;" parent="0ivfpPBr5skAcwwmlLvo-1" vertex="1">
          <mxGeometry x="437" y="423" width="80" height="20" as="geometry"/>
        </mxCell>
        <mxCell id="NKnbBvsXSK_pB3nqTvZj-6" value="&lt;b&gt;&lt;font style=&quot;font-size: 15px&quot;&gt;No&lt;/font&gt;&lt;/b&gt;" style="text;html=1;resizable=0;autosize=1;align=center;verticalAlign=middle;points=[];fillColor=none;strokeColor=none;rounded=0;shadow=0;fontSize=13;fontColor=#AE4132;" parent="0ivfpPBr5skAcwwmlLvo-1" vertex="1">
          <mxGeometry x="557" y="486" width="40" height="20" as="geometry"/>
        </mxCell>
        <mxCell id="NKnbBvsXSK_pB3nqTvZj-9" value="" style="strokeColor=#990000;strokeWidth=2;rounded=1;edgeStyle=orthogonalEdgeStyle;elbow=vertical;fontSize=13;exitX=1;exitY=0.5;exitDx=0;exitDy=0;exitPerimeter=0;entryX=0;entryY=0.5;entryDx=0;entryDy=0;" parent="0ivfpPBr5skAcwwmlLvo-1" source="NKnbBvsXSK_pB3nqTvZj-2" target="IgGuuLYvyFryZc-H8myu-2" edge="1">
          <mxGeometry width="100" height="100" relative="1" as="geometry">
            <mxPoint x="580.5" y="476.5" as="sourcePoint"/>
            <mxPoint x="610" y="479" as="targetPoint"/>
          </mxGeometry>
        </mxCell>
        <mxCell id="NKnbBvsXSK_pB3nqTvZj-11" value="&lt;b&gt;&lt;font style=&quot;font-size: 15px&quot;&gt;Yes&lt;/font&gt;&lt;/b&gt;" style="text;html=1;resizable=0;autosize=1;align=center;verticalAlign=middle;points=[];fillColor=none;strokeColor=none;rounded=0;shadow=0;fontSize=13;fontColor=#AE4132;" parent="0ivfpPBr5skAcwwmlLvo-1" vertex="1">
          <mxGeometry x="487" y="513" width="40" height="20" as="geometry"/>
        </mxCell>
        <mxCell id="NKnbBvsXSK_pB3nqTvZj-12" value="" style="strokeColor=#990000;strokeWidth=2;rounded=1;edgeStyle=orthogonalEdgeStyle;elbow=vertical;fontSize=13;entryX=0.5;entryY=0;entryDx=0;entryDy=0;entryPerimeter=0;exitX=0.5;exitY=0;exitDx=0;exitDy=0;" parent="0ivfpPBr5skAcwwmlLvo-1" source="IgGuuLYvyFryZc-H8myu-2" target="NKnbBvsXSK_pB3nqTvZj-2" edge="1">
          <mxGeometry width="100" height="100" relative="1" as="geometry">
            <mxPoint x="703" y="570" as="sourcePoint"/>
            <mxPoint x="493.5" y="665" as="targetPoint"/>
            <Array as="points">
              <mxPoint x="658" y="420"/>
              <mxPoint x="531" y="420"/>
            </Array>
          </mxGeometry>
        </mxCell>
        <mxCell id="NKnbBvsXSK_pB3nqTvZj-13" value="TPERP01已設定為active/inactive" style="ellipse;shape=cloud;whiteSpace=wrap;html=1;rounded=0;shadow=0;glass=0;comic=0;strokeColor=#D6B656;strokeWidth=2;fillColor=none;fontSize=14;" parent="0ivfpPBr5skAcwwmlLvo-1" vertex="1">
          <mxGeometry x="456" y="638" width="147" height="90" as="geometry"/>
        </mxCell>
        <mxCell id="NKnbBvsXSK_pB3nqTvZj-14" value="&lt;p style=&quot;line-height: 100%; font-size: 18px;&quot;&gt;W&lt;/p&gt;" style="strokeWidth=2;html=1;shape=mxgraph.flowchart.decision;whiteSpace=wrap;shadow=0;fillColor=#fff2cc;fontSize=18;labelBorderColor=none;strokeColor=#d6b656;spacing=0;fontStyle=1;fontColor=#C2A54E;" parent="0ivfpPBr5skAcwwmlLvo-1" vertex="1">
          <mxGeometry x="507" y="758" width="60" height="60" as="geometry"/>
        </mxCell>
        <mxCell id="NKnbBvsXSK_pB3nqTvZj-15" value="" style="strokeColor=#990000;strokeWidth=2;exitX=0.5;exitY=1;exitDx=0;exitDy=0;rounded=1;edgeStyle=elbowEdgeStyle;elbow=vertical;fontSize=13;entryX=0.51;entryY=0.122;entryDx=0;entryDy=0;entryPerimeter=0;" parent="0ivfpPBr5skAcwwmlLvo-1" source="NKnbBvsXSK_pB3nqTvZj-1" target="NKnbBvsXSK_pB3nqTvZj-13" edge="1">
          <mxGeometry width="100" height="100" relative="1" as="geometry">
            <mxPoint x="620" y="620" as="sourcePoint"/>
            <mxPoint x="620" y="654" as="targetPoint"/>
          </mxGeometry>
        </mxCell>
        <mxCell id="NKnbBvsXSK_pB3nqTvZj-16" value="" style="strokeColor=#990000;strokeWidth=2;exitX=0.55;exitY=0.95;exitDx=0;exitDy=0;rounded=1;edgeStyle=elbowEdgeStyle;elbow=vertical;fontSize=13;entryX=0.5;entryY=0;entryDx=0;entryDy=0;entryPerimeter=0;exitPerimeter=0;" parent="0ivfpPBr5skAcwwmlLvo-1" source="NKnbBvsXSK_pB3nqTvZj-13" target="NKnbBvsXSK_pB3nqTvZj-14" edge="1">
          <mxGeometry width="100" height="100" relative="1" as="geometry">
            <mxPoint x="566.5" y="728" as="sourcePoint"/>
            <mxPoint x="566.5" y="764" as="targetPoint"/>
          </mxGeometry>
        </mxCell>
        <mxCell id="NKnbBvsXSK_pB3nqTvZj-17" value="" style="strokeColor=#990000;strokeWidth=2;exitX=0.5;exitY=1;exitDx=0;exitDy=0;rounded=1;edgeStyle=orthogonalEdgeStyle;fontSize=13;exitPerimeter=0;entryX=0.4;entryY=0.1;entryDx=0;entryDy=0;entryPerimeter=0;" parent="0ivfpPBr5skAcwwmlLvo-1" source="0UQkhSvVaB_1mdY3n597-46" target="VDIvDdAqKzBQ3UfRSM_H-16" edge="1">
          <mxGeometry width="100" height="100" relative="1" as="geometry">
            <mxPoint x="637" y="196" as="sourcePoint"/>
            <mxPoint x="808" y="210" as="targetPoint"/>
            <Array as="points">
              <mxPoint x="507" y="216"/>
            </Array>
          </mxGeometry>
        </mxCell>
        <mxCell id="NKnbBvsXSK_pB3nqTvZj-18" value="" style="rounded=1;arcSize=10;dashed=1;strokeColor=#000000;fillColor=none;gradientColor=none;dashPattern=8 3 1 3;strokeWidth=2;" parent="0ivfpPBr5skAcwwmlLvo-1" vertex="1">
          <mxGeometry x="1000" y="20" width="150" height="230" as="geometry"/>
        </mxCell>
        <mxCell id="NKnbBvsXSK_pB3nqTvZj-19" value="Response" style="ellipse;shape=cloud;whiteSpace=wrap;html=1;rounded=0;shadow=0;glass=0;comic=0;strokeColor=#D6B656;strokeWidth=2;fillColor=none;fontSize=14;" parent="0ivfpPBr5skAcwwmlLvo-1" vertex="1">
          <mxGeometry x="1022" y="193" width="97" height="50" as="geometry"/>
        </mxCell>
        <mxCell id="NKnbBvsXSK_pB3nqTvZj-20" value="&lt;p style=&quot;margin: 4px 0px 0px ; font-size: 13px&quot;&gt;&lt;b style=&quot;font-size: 13px&quot;&gt;&lt;i style=&quot;font-size: 13px&quot;&gt;Intent&lt;/i&gt;&lt;/b&gt;&lt;/p&gt;" style="verticalAlign=top;align=center;overflow=fill;fontSize=13;fontFamily=Helvetica;html=1;fillColor=#fff2cc;strokeColor=#d6b656;strokeWidth=2;" parent="0ivfpPBr5skAcwwmlLvo-1" vertex="1">
          <mxGeometry x="1031" y="111" width="90" height="25" as="geometry"/>
        </mxCell>
        <mxCell id="NKnbBvsXSK_pB3nqTvZj-21" value="&lt;p style=&quot;margin: 4px 0px 0px ; font-size: 13px&quot;&gt;&lt;strong style=&quot;font-size: 13px&quot;&gt;Fulfillment&lt;/strong&gt;&lt;/p&gt;" style="verticalAlign=middle;align=center;overflow=fill;fontSize=13;fontFamily=Helvetica;html=1;rounded=1;fontStyle=1;strokeWidth=2;fillColor=#E6FFCC;strokeColor=#006600;" parent="0ivfpPBr5skAcwwmlLvo-1" vertex="1">
          <mxGeometry x="1027" y="154.5" width="94" height="27" as="geometry"/>
        </mxCell>
        <mxCell id="NKnbBvsXSK_pB3nqTvZj-22" value="user utterance" style="ellipse;shape=cloud;whiteSpace=wrap;html=1;rounded=0;shadow=0;glass=0;comic=0;strokeColor=#10739e;strokeWidth=2;fillColor=none;fontSize=14;" parent="0ivfpPBr5skAcwwmlLvo-1" vertex="1">
          <mxGeometry x="1005" y="31.5" width="137" height="65" as="geometry"/>
        </mxCell>
        <mxCell id="wm-gQ7IqiN9sV3zlUVDU-0" value="" style="group" parent="0ivfpPBr5skAcwwmlLvo-1" vertex="1" connectable="0">
          <mxGeometry x="60" y="417" width="84" height="26" as="geometry"/>
        </mxCell>
        <mxCell id="wm-gQ7IqiN9sV3zlUVDU-1" value="" style="shape=curlyBracket;whiteSpace=wrap;html=1;rounded=1;shadow=0;glass=0;comic=0;strokeColor=#4D4D4D;strokeWidth=2;fillColor=none;fontSize=14;align=right;" parent="wm-gQ7IqiN9sV3zlUVDU-0" vertex="1">
          <mxGeometry width="9" height="26" as="geometry"/>
        </mxCell>
        <mxCell id="wm-gQ7IqiN9sV3zlUVDU-2" value="" style="shape=curlyBracket;whiteSpace=wrap;html=1;rounded=1;shadow=0;glass=0;comic=0;strokeColor=#4D4D4D;strokeWidth=2;fillColor=none;fontSize=14;align=right;rotation=180;" parent="wm-gQ7IqiN9sV3zlUVDU-0" vertex="1">
          <mxGeometry x="77" width="7" height="23" as="geometry"/>
        </mxCell>
        <mxCell id="wm-gQ7IqiN9sV3zlUVDU-3" value="slot filling" style="text;resizable=0;autosize=1;align=center;verticalAlign=middle;points=[];fillColor=none;strokeColor=none;rounded=0;shadow=0;comic=0;fontSize=16;fontColor=#4D4D4D;fontStyle=2;" parent="wm-gQ7IqiN9sV3zlUVDU-0" vertex="1">
          <mxGeometry x="7" y="1.5" width="70" height="20" as="geometry"/>
        </mxCell>
        <mxCell id="wm-gQ7IqiN9sV3zlUVDU-4" value="" style="group" parent="0ivfpPBr5skAcwwmlLvo-1" vertex="1" connectable="0">
          <mxGeometry x="615.5" y="466" width="84" height="26" as="geometry"/>
        </mxCell>
        <mxCell id="wm-gQ7IqiN9sV3zlUVDU-5" value="" style="shape=curlyBracket;whiteSpace=wrap;html=1;rounded=1;shadow=0;glass=0;comic=0;strokeColor=#4D4D4D;strokeWidth=2;fillColor=none;fontSize=14;align=right;" parent="wm-gQ7IqiN9sV3zlUVDU-4" vertex="1">
          <mxGeometry width="9" height="26" as="geometry"/>
        </mxCell>
        <mxCell id="wm-gQ7IqiN9sV3zlUVDU-6" value="" style="shape=curlyBracket;whiteSpace=wrap;html=1;rounded=1;shadow=0;glass=0;comic=0;strokeColor=#4D4D4D;strokeWidth=2;fillColor=none;fontSize=14;align=right;rotation=180;" parent="wm-gQ7IqiN9sV3zlUVDU-4" vertex="1">
          <mxGeometry x="77" width="7" height="23" as="geometry"/>
        </mxCell>
        <mxCell id="wm-gQ7IqiN9sV3zlUVDU-7" value="slot filling" style="text;resizable=0;autosize=1;align=center;verticalAlign=middle;points=[];fillColor=none;strokeColor=none;rounded=0;shadow=0;comic=0;fontSize=16;fontColor=#4D4D4D;fontStyle=2;" parent="wm-gQ7IqiN9sV3zlUVDU-4" vertex="1">
          <mxGeometry x="7" y="1.5" width="70" height="20" as="geometry"/>
        </mxCell>
        <mxCell id="wm-gQ7IqiN9sV3zlUVDU-8" value="" style="group" parent="0ivfpPBr5skAcwwmlLvo-1" vertex="1" connectable="0">
          <mxGeometry x="955" y="424.5" width="84" height="26" as="geometry"/>
        </mxCell>
        <mxCell id="wm-gQ7IqiN9sV3zlUVDU-9" value="" style="shape=curlyBracket;whiteSpace=wrap;html=1;rounded=1;shadow=0;glass=0;comic=0;strokeColor=#4D4D4D;strokeWidth=2;fillColor=none;fontSize=14;align=right;" parent="wm-gQ7IqiN9sV3zlUVDU-8" vertex="1">
          <mxGeometry width="9" height="26" as="geometry"/>
        </mxCell>
        <mxCell id="wm-gQ7IqiN9sV3zlUVDU-10" value="" style="shape=curlyBracket;whiteSpace=wrap;html=1;rounded=1;shadow=0;glass=0;comic=0;strokeColor=#4D4D4D;strokeWidth=2;fillColor=none;fontSize=14;align=right;rotation=180;" parent="wm-gQ7IqiN9sV3zlUVDU-8" vertex="1">
          <mxGeometry x="77" width="7" height="23" as="geometry"/>
        </mxCell>
        <mxCell id="wm-gQ7IqiN9sV3zlUVDU-11" value="slot filling" style="text;resizable=0;autosize=1;align=center;verticalAlign=middle;points=[];fillColor=none;strokeColor=none;rounded=0;shadow=0;comic=0;fontSize=16;fontColor=#4D4D4D;fontStyle=2;" parent="wm-gQ7IqiN9sV3zlUVDU-8" vertex="1">
          <mxGeometry x="7" y="1.5" width="70" height="20" as="geometry"/>
        </mxCell>
        <mxCell id="AkCJRFz78Yll6uVkabof-1" value="" style="strokeColor=#990000;strokeWidth=2;rounded=1;edgeStyle=orthogonalEdgeStyle;elbow=vertical;fontSize=13;exitX=1;exitY=0.5;exitDx=0;exitDy=0;exitPerimeter=0;entryX=0;entryY=0.5;entryDx=0;entryDy=0;" parent="0ivfpPBr5skAcwwmlLvo-1" source="0UQkhSvVaB_1mdY3n597-4" target="IgGuuLYvyFryZc-H8myu-3" edge="1">
          <mxGeometry width="100" height="100" relative="1" as="geometry">
            <mxPoint x="913.5" y="437" as="sourcePoint"/>
            <mxPoint x="920" y="410" as="targetPoint"/>
          </mxGeometry>
        </mxCell>
        <mxCell id="PhzlRu1r4PS7M42cWYWp-0" value="&lt;span&gt;&lt;font style=&quot;font-size: 14px&quot;&gt;Switch Action?&lt;/font&gt;&lt;/span&gt;" style="text;html=1;resizable=0;autosize=1;align=center;verticalAlign=middle;points=[];fillColor=none;strokeColor=none;rounded=0;shadow=0;fontSize=13;fontStyle=0;comic=0;fontColor=#AE4132;" vertex="1" parent="0ivfpPBr5skAcwwmlLvo-1">
          <mxGeometry x="413" y="442" width="110" height="20" as="geometry"/>
        </mxCell>
      </root>
    </mxGraphModel>
  </diagram>
  <diagram id="bM1LIQPi1tVLYMAEycQf" name="whl_family">
    <mxGraphModel dx="1110" dy="804" grid="1" gridSize="10" guides="1" tooltips="1" connect="1" arrows="1" fold="1" page="1" pageScale="1" pageWidth="1169" pageHeight="827" background="#ffffff" math="0" shadow="0">
      <root>
        <mxCell id="w6Rwm8e1sw4K4lW6BCrl-0"/>
        <mxCell id="w6Rwm8e1sw4K4lW6BCrl-1" parent="w6Rwm8e1sw4K4lW6BCrl-0"/>
        <mxCell id="bkxBSIzz55Cx79u4aOW4-0" value="&#xa;&#xa;..............." style="rounded=1;arcSize=10;dashed=1;strokeColor=#000000;fillColor=#E6E6E6;gradientColor=none;strokeWidth=2;glass=0;opacity=35;" parent="w6Rwm8e1sw4K4lW6BCrl-1" vertex="1">
          <mxGeometry x="500" y="390" width="110" height="80" as="geometry"/>
        </mxCell>
        <mxCell id="CfiYvJVaCbj04n-nvV5e-4" value="" style="rounded=1;orthogonalLoop=1;jettySize=auto;html=1;fontSize=13;strokeColor=#990000;strokeWidth=2;entryX=0.4;entryY=0.1;entryDx=0;entryDy=0;entryPerimeter=0;" parent="w6Rwm8e1sw4K4lW6BCrl-1" source="jse-jPp2YFqfD8shlGFt-10" target="CfiYvJVaCbj04n-nvV5e-0" edge="1">
          <mxGeometry relative="1" as="geometry">
            <mxPoint x="107" y="460" as="targetPoint"/>
          </mxGeometry>
        </mxCell>
        <mxCell id="jse-jPp2YFqfD8shlGFt-10" value="&lt;p style=&quot;margin: 4px 0px 0px; font-size: 13px;&quot;&gt;&lt;b style=&quot;font-size: 13px;&quot;&gt;&lt;i style=&quot;font-size: 13px;&quot;&gt;Intent&lt;/i&gt;&lt;/b&gt;&lt;/p&gt;&lt;hr style=&quot;font-size: 13px;&quot;&gt;&lt;div style=&quot;height: 2px; font-size: 13px;&quot;&gt;查詢個人設備預訂狀況&lt;/div&gt;" style="verticalAlign=top;align=center;overflow=fill;fontSize=13;fontFamily=Helvetica;html=1;fillColor=#fff2cc;strokeColor=#d6b656;gradientColor=none;strokeWidth=2;" parent="w6Rwm8e1sw4K4lW6BCrl-1" vertex="1">
          <mxGeometry x="15" y="320" width="140" height="60" as="geometry"/>
        </mxCell>
        <mxCell id="CfiYvJVaCbj04n-nvV5e-9" value="" style="rounded=1;orthogonalLoop=1;jettySize=auto;html=1;fontSize=13;strokeColor=#990000;strokeWidth=2;entryX=0.4;entryY=0.1;entryDx=0;entryDy=0;entryPerimeter=0;" parent="w6Rwm8e1sw4K4lW6BCrl-1" source="r8AQIAuawvi4urHGgF6m-0" target="CfiYvJVaCbj04n-nvV5e-7" edge="1">
          <mxGeometry relative="1" as="geometry">
            <mxPoint x="281.5" y="530" as="targetPoint"/>
          </mxGeometry>
        </mxCell>
        <mxCell id="r8AQIAuawvi4urHGgF6m-0" value="&lt;p style=&quot;margin: 4px 0px 0px; font-size: 13px;&quot;&gt;&lt;b style=&quot;font-size: 13px;&quot;&gt;&lt;i style=&quot;font-size: 13px;&quot;&gt;Intent&lt;/i&gt;&lt;/b&gt;&lt;/p&gt;&lt;hr style=&quot;font-size: 13px;&quot;&gt;&lt;div style=&quot;height: 2px; font-size: 13px;&quot;&gt;查詢設備列表&lt;/div&gt;" style="verticalAlign=top;align=center;overflow=fill;fontSize=13;fontFamily=Helvetica;html=1;fillColor=#fff2cc;strokeColor=#d6b656;strokeWidth=2;gradientColor=none;" parent="w6Rwm8e1sw4K4lW6BCrl-1" vertex="1">
          <mxGeometry x="180" y="320" width="120" height="60" as="geometry"/>
        </mxCell>
        <mxCell id="mzmMlJA1ObpwoUsL8CBz-1" value="&lt;p style=&quot;margin: 4px 0px 0px; font-size: 13px;&quot;&gt;&lt;b style=&quot;font-size: 13px;&quot;&gt;&lt;i style=&quot;font-size: 13px;&quot;&gt;Intent&lt;/i&gt;&lt;/b&gt;&lt;/p&gt;&lt;hr style=&quot;font-size: 13px;&quot;&gt;&lt;div style=&quot;height: 2px; font-size: 13px;&quot;&gt;查詢可用設備(by日期/時段)&lt;/div&gt;" style="verticalAlign=top;align=center;overflow=fill;fontSize=13;fontFamily=Helvetica;html=1;fillColor=#fff2cc;strokeColor=#d6b656;strokeWidth=2;gradientColor=none;" parent="w6Rwm8e1sw4K4lW6BCrl-1" vertex="1">
          <mxGeometry x="339" y="320" width="160" height="60" as="geometry"/>
        </mxCell>
        <mxCell id="9gwf3tFKpbmoKM7n8hCI-1" value="" style="edgeStyle=orthogonalEdgeStyle;rounded=1;orthogonalLoop=1;jettySize=auto;html=1;fontSize=13;fontColor=#000000;strokeColor=#990000;strokeWidth=2;" parent="w6Rwm8e1sw4K4lW6BCrl-1" source="mzmMlJA1ObpwoUsL8CBz-4" target="9gwf3tFKpbmoKM7n8hCI-0" edge="1">
          <mxGeometry relative="1" as="geometry"/>
        </mxCell>
        <mxCell id="mzmMlJA1ObpwoUsL8CBz-4" value="&lt;p style=&quot;margin: 4px 0px 0px; font-size: 13px;&quot;&gt;&lt;b style=&quot;font-size: 13px;&quot;&gt;&lt;i style=&quot;font-size: 13px;&quot;&gt;Intent&lt;/i&gt;&lt;/b&gt;&lt;/p&gt;&lt;hr style=&quot;font-size: 13px;&quot;&gt;&lt;div style=&quot;height: 2px; font-size: 13px;&quot;&gt;查詢設備是否被佔用(by日期/時段)&lt;/div&gt;" style="verticalAlign=top;align=center;overflow=fill;fontSize=13;fontFamily=Helvetica;html=1;fillColor=#fff2cc;strokeColor=#d6b656;strokeWidth=2;gradientColor=none;" parent="w6Rwm8e1sw4K4lW6BCrl-1" vertex="1">
          <mxGeometry x="600" y="320" width="200" height="60" as="geometry"/>
        </mxCell>
        <mxCell id="79elz4H1n_b1jxAeRC9k-4" value="&lt;p style=&quot;margin: 4px 0px 0px; font-size: 13px;&quot;&gt;&lt;b style=&quot;font-size: 13px;&quot;&gt;&lt;i style=&quot;font-size: 13px;&quot;&gt;Intent&lt;/i&gt;&lt;/b&gt;&lt;/p&gt;&lt;hr style=&quot;font-size: 13px;&quot;&gt;&lt;div style=&quot;height: 2px; font-size: 13px;&quot;&gt;預定設備&lt;/div&gt;" style="verticalAlign=top;align=center;overflow=fill;fontSize=13;fontFamily=Helvetica;html=1;fillColor=#fff2cc;strokeColor=#d6b656;strokeWidth=2;gradientColor=none;" parent="w6Rwm8e1sw4K4lW6BCrl-1" vertex="1">
          <mxGeometry x="867.5" y="316.5" width="82" height="60" as="geometry"/>
        </mxCell>
        <mxCell id="79elz4H1n_b1jxAeRC9k-5" value="&lt;p style=&quot;margin: 4px 0px 0px; font-size: 13px;&quot;&gt;&lt;b style=&quot;font-size: 13px;&quot;&gt;&lt;i style=&quot;font-size: 13px;&quot;&gt;Intent&lt;/i&gt;&lt;/b&gt;&lt;/p&gt;&lt;hr style=&quot;font-size: 13px;&quot;&gt;&lt;div style=&quot;height: 2px; font-size: 13px;&quot;&gt;取消預定&lt;/div&gt;" style="verticalAlign=top;align=center;overflow=fill;fontSize=13;fontFamily=Helvetica;html=1;fillColor=#fff2cc;strokeColor=#d6b656;strokeWidth=2;gradientColor=none;" parent="w6Rwm8e1sw4K4lW6BCrl-1" vertex="1">
          <mxGeometry x="1014.5" y="316.5" width="78" height="60" as="geometry"/>
        </mxCell>
        <mxCell id="bj40C21zv5UWQV0IM862-0" value="" style="rounded=1;arcSize=10;dashed=1;strokeColor=#000000;fillColor=none;gradientColor=none;dashPattern=8 3 1 3;strokeWidth=2;" parent="w6Rwm8e1sw4K4lW6BCrl-1" vertex="1">
          <mxGeometry x="1012" y="20" width="150" height="230" as="geometry"/>
        </mxCell>
        <mxCell id="bj40C21zv5UWQV0IM862-1" value="Response" style="ellipse;shape=cloud;whiteSpace=wrap;html=1;rounded=0;shadow=0;glass=0;comic=0;strokeColor=#D6B656;strokeWidth=2;fillColor=none;fontSize=14;" parent="w6Rwm8e1sw4K4lW6BCrl-1" vertex="1">
          <mxGeometry x="1034" y="193" width="97" height="50" as="geometry"/>
        </mxCell>
        <mxCell id="bj40C21zv5UWQV0IM862-2" value="&lt;p style=&quot;margin: 4px 0px 0px ; font-size: 13px&quot;&gt;&lt;b style=&quot;font-size: 13px&quot;&gt;&lt;i style=&quot;font-size: 13px&quot;&gt;Intent&lt;/i&gt;&lt;/b&gt;&lt;/p&gt;" style="verticalAlign=top;align=center;overflow=fill;fontSize=13;fontFamily=Helvetica;html=1;fillColor=#fff2cc;strokeColor=#d6b656;strokeWidth=2;" parent="w6Rwm8e1sw4K4lW6BCrl-1" vertex="1">
          <mxGeometry x="1043" y="111" width="90" height="25" as="geometry"/>
        </mxCell>
        <mxCell id="bj40C21zv5UWQV0IM862-3" value="&lt;p style=&quot;margin: 4px 0px 0px ; font-size: 13px&quot;&gt;&lt;strong style=&quot;font-size: 13px&quot;&gt;Fulfillment&lt;/strong&gt;&lt;/p&gt;" style="verticalAlign=middle;align=center;overflow=fill;fontSize=13;fontFamily=Helvetica;html=1;rounded=1;fontStyle=1;strokeWidth=2;fillColor=#E6FFCC;strokeColor=#006600;" parent="w6Rwm8e1sw4K4lW6BCrl-1" vertex="1">
          <mxGeometry x="1039" y="154.5" width="94" height="27" as="geometry"/>
        </mxCell>
        <mxCell id="bj40C21zv5UWQV0IM862-4" value="user utterance" style="ellipse;shape=cloud;whiteSpace=wrap;html=1;rounded=0;shadow=0;glass=0;comic=0;strokeColor=#10739e;strokeWidth=2;fillColor=none;fontSize=14;" parent="w6Rwm8e1sw4K4lW6BCrl-1" vertex="1">
          <mxGeometry x="1017" y="31.5" width="137" height="65" as="geometry"/>
        </mxCell>
        <mxCell id="Wf8VR-S96phb23UKXtt4-0" value="" style="verticalLabelPosition=bottom;html=1;verticalAlign=top;align=center;strokeColor=#6c8ebf;fillColor=#dae8fc;shape=mxgraph.azure.user;strokeWidth=2;" parent="w6Rwm8e1sw4K4lW6BCrl-1" vertex="1">
          <mxGeometry x="40" y="20" width="67" height="70" as="geometry"/>
        </mxCell>
        <mxCell id="Wf8VR-S96phb23UKXtt4-1" value="哈囉!" style="ellipse;shape=cloud;whiteSpace=wrap;html=1;rounded=0;shadow=0;glass=0;comic=0;strokeColor=#10739e;strokeWidth=2;fillColor=none;fontSize=14;" parent="w6Rwm8e1sw4K4lW6BCrl-1" vertex="1">
          <mxGeometry x="157" y="42" width="80" height="60" as="geometry"/>
        </mxCell>
        <mxCell id="Wf8VR-S96phb23UKXtt4-2" value="" style="strokeColor=#AE4132;strokeWidth=2;exitX=0.87;exitY=0.65;exitDx=0;exitDy=0;rounded=1;edgeStyle=elbowEdgeStyle;fontSize=13;exitPerimeter=0;entryX=0.07;entryY=0.4;entryDx=0;entryDy=0;entryPerimeter=0;" parent="w6Rwm8e1sw4K4lW6BCrl-1" source="Wf8VR-S96phb23UKXtt4-0" target="Wf8VR-S96phb23UKXtt4-1" edge="1">
          <mxGeometry width="100" height="100" relative="1" as="geometry">
            <mxPoint x="303" y="216" as="sourcePoint"/>
            <mxPoint x="150" y="66" as="targetPoint"/>
          </mxGeometry>
        </mxCell>
        <mxCell id="Wf8VR-S96phb23UKXtt4-3" value="&lt;p style=&quot;margin: 4px 0px 0px ; font-size: 13px&quot;&gt;&lt;b style=&quot;font-size: 13px&quot;&gt;&lt;i style=&quot;font-size: 13px&quot;&gt;Intent&lt;/i&gt;&lt;/b&gt;&lt;/p&gt;&lt;hr style=&quot;font-size: 13px&quot;&gt;&lt;div style=&quot;height: 2px ; font-size: 13px&quot;&gt;Welcome&lt;/div&gt;" style="verticalAlign=top;align=center;overflow=fill;fontSize=13;fontFamily=Helvetica;html=1;fillColor=#fff2cc;strokeColor=#d6b656;strokeWidth=2;" parent="w6Rwm8e1sw4K4lW6BCrl-1" vertex="1">
          <mxGeometry x="290" y="42" width="90" height="60" as="geometry"/>
        </mxCell>
        <mxCell id="Wf8VR-S96phb23UKXtt4-4" value="" style="strokeColor=#AE4132;strokeWidth=2;entryX=0;entryY=0.5;entryDx=0;entryDy=0;rounded=1;edgeStyle=elbowEdgeStyle;fontSize=13;exitX=0.875;exitY=0.5;exitDx=0;exitDy=0;exitPerimeter=0;" parent="w6Rwm8e1sw4K4lW6BCrl-1" source="Wf8VR-S96phb23UKXtt4-1" target="Wf8VR-S96phb23UKXtt4-3" edge="1">
          <mxGeometry width="100" height="100" relative="1" as="geometry">
            <mxPoint x="250" y="50" as="sourcePoint"/>
            <mxPoint x="312" y="59.5" as="targetPoint"/>
          </mxGeometry>
        </mxCell>
        <mxCell id="Wf8VR-S96phb23UKXtt4-5" value="" style="strokeColor=#AE4132;strokeWidth=2;exitX=1;exitY=0.5;exitDx=0;exitDy=0;entryX=0.07;entryY=0.4;entryDx=0;entryDy=0;rounded=1;edgeStyle=elbowEdgeStyle;fontSize=13;entryPerimeter=0;" parent="w6Rwm8e1sw4K4lW6BCrl-1" source="Wf8VR-S96phb23UKXtt4-3" target="Wf8VR-S96phb23UKXtt4-6" edge="1">
          <mxGeometry width="100" height="100" relative="1" as="geometry">
            <mxPoint x="440" y="64" as="sourcePoint"/>
            <mxPoint x="512" y="64" as="targetPoint"/>
          </mxGeometry>
        </mxCell>
        <mxCell id="Wf8VR-S96phb23UKXtt4-6" value="您好，有甚麼可以&lt;br&gt;幫助您的?" style="ellipse;shape=cloud;whiteSpace=wrap;html=1;rounded=0;shadow=0;glass=0;comic=0;strokeColor=#D6B656;strokeWidth=2;fillColor=none;fontSize=14;" parent="w6Rwm8e1sw4K4lW6BCrl-1" vertex="1">
          <mxGeometry x="440.5" y="15" width="157" height="100" as="geometry"/>
        </mxCell>
        <mxCell id="Wf8VR-S96phb23UKXtt4-7" value="" style="strokeColor=#AE4132;strokeWidth=2;exitX=0.55;exitY=0.95;exitDx=0;exitDy=0;entryX=0.5;entryY=0;entryDx=0;entryDy=0;rounded=1;edgeStyle=orthogonalEdgeStyle;fontSize=13;exitPerimeter=0;entryPerimeter=0;" parent="w6Rwm8e1sw4K4lW6BCrl-1" source="Wf8VR-S96phb23UKXtt4-6" target="Wf8VR-S96phb23UKXtt4-8" edge="1">
          <mxGeometry width="100" height="100" relative="1" as="geometry">
            <mxPoint x="597.5" y="65" as="sourcePoint"/>
            <mxPoint x="527" y="156" as="targetPoint"/>
          </mxGeometry>
        </mxCell>
        <mxCell id="CfiYvJVaCbj04n-nvV5e-11" value="" style="edgeStyle=orthogonalEdgeStyle;rounded=1;orthogonalLoop=1;jettySize=auto;html=1;fontSize=13;strokeColor=#990000;strokeWidth=2;entryX=0.4;entryY=0.1;entryDx=0;entryDy=0;entryPerimeter=0;" parent="w6Rwm8e1sw4K4lW6BCrl-1" source="Wf8VR-S96phb23UKXtt4-8" target="EQKN0aqliQptyV6O3c2N-0" edge="1">
          <mxGeometry relative="1" as="geometry">
            <mxPoint x="190" y="166" as="targetPoint"/>
          </mxGeometry>
        </mxCell>
        <mxCell id="CfiYvJVaCbj04n-nvV5e-13" value="" style="edgeStyle=orthogonalEdgeStyle;rounded=1;orthogonalLoop=1;jettySize=auto;html=1;fontSize=13;strokeColor=#990000;strokeWidth=2;entryX=0.4;entryY=0.1;entryDx=0;entryDy=0;entryPerimeter=0;" parent="w6Rwm8e1sw4K4lW6BCrl-1" source="Wf8VR-S96phb23UKXtt4-8" target="EQKN0aqliQptyV6O3c2N-1" edge="1">
          <mxGeometry relative="1" as="geometry">
            <mxPoint x="487" y="165.5" as="targetPoint"/>
          </mxGeometry>
        </mxCell>
        <mxCell id="Wf8VR-S96phb23UKXtt4-8" value="&lt;p style=&quot;line-height: 100%; font-size: 18px;&quot;&gt;W&lt;/p&gt;" style="strokeWidth=2;html=1;shape=mxgraph.flowchart.decision;whiteSpace=wrap;shadow=0;fillColor=#fff2cc;fontSize=18;labelBorderColor=none;strokeColor=#d6b656;spacing=0;fontStyle=1;fontColor=#C2A54E;" parent="w6Rwm8e1sw4K4lW6BCrl-1" vertex="1">
          <mxGeometry x="497" y="135.5" width="60" height="60" as="geometry"/>
        </mxCell>
        <mxCell id="CfiYvJVaCbj04n-nvV5e-2" value="" style="rounded=1;orthogonalLoop=1;jettySize=auto;html=1;fontSize=13;strokeColor=#990000;strokeWidth=2;entryX=0.5;entryY=0;entryDx=0;entryDy=0;" parent="w6Rwm8e1sw4K4lW6BCrl-1" source="EQKN0aqliQptyV6O3c2N-0" target="jse-jPp2YFqfD8shlGFt-10" edge="1">
          <mxGeometry relative="1" as="geometry">
            <mxPoint x="91.5" y="302.5" as="targetPoint"/>
          </mxGeometry>
        </mxCell>
        <mxCell id="EQKN0aqliQptyV6O3c2N-0" value="我想查我的&lt;br&gt;預定狀況" style="ellipse;shape=cloud;whiteSpace=wrap;html=1;rounded=0;shadow=0;glass=0;comic=0;strokeColor=#10739e;strokeWidth=2;fillColor=none;fontSize=14;" parent="w6Rwm8e1sw4K4lW6BCrl-1" vertex="1">
          <mxGeometry x="14" y="202" width="143" height="82" as="geometry"/>
        </mxCell>
        <mxCell id="CfiYvJVaCbj04n-nvV5e-6" value="" style="rounded=1;orthogonalLoop=1;jettySize=auto;html=1;fontSize=13;strokeColor=#990000;strokeWidth=2;entryX=0.5;entryY=0;entryDx=0;entryDy=0;" parent="w6Rwm8e1sw4K4lW6BCrl-1" source="EQKN0aqliQptyV6O3c2N-1" target="r8AQIAuawvi4urHGgF6m-0" edge="1">
          <mxGeometry relative="1" as="geometry">
            <mxPoint x="237" y="355" as="targetPoint"/>
          </mxGeometry>
        </mxCell>
        <mxCell id="EQKN0aqliQptyV6O3c2N-1" value="有哪些會議室？" style="ellipse;shape=cloud;whiteSpace=wrap;html=1;rounded=0;shadow=0;glass=0;comic=0;strokeColor=#10739e;strokeWidth=2;fillColor=none;fontSize=14;" parent="w6Rwm8e1sw4K4lW6BCrl-1" vertex="1">
          <mxGeometry x="165.5" y="202" width="143" height="82" as="geometry"/>
        </mxCell>
        <mxCell id="EQKN0aqliQptyV6O3c2N-2" value="後天下午有哪些&lt;br&gt;會議室可以使用？" style="ellipse;shape=cloud;whiteSpace=wrap;html=1;rounded=0;shadow=0;glass=0;comic=0;strokeColor=#10739e;strokeWidth=2;fillColor=none;fontSize=14;" parent="w6Rwm8e1sw4K4lW6BCrl-1" vertex="1">
          <mxGeometry x="333" y="197" width="155" height="92" as="geometry"/>
        </mxCell>
        <mxCell id="EQKN0aqliQptyV6O3c2N-3" value="雅加達廳後天下午&lt;br&gt;有人預約了嗎？" style="ellipse;shape=cloud;whiteSpace=wrap;html=1;rounded=0;shadow=0;glass=0;comic=0;strokeColor=#10739e;strokeWidth=2;fillColor=none;fontSize=14;" parent="w6Rwm8e1sw4K4lW6BCrl-1" vertex="1">
          <mxGeometry x="614" y="195.5" width="155" height="92" as="geometry"/>
        </mxCell>
        <mxCell id="CfiYvJVaCbj04n-nvV5e-0" value="您的預約狀況如下：&lt;br&gt;.........." style="ellipse;shape=cloud;whiteSpace=wrap;html=1;rounded=0;shadow=0;glass=0;comic=0;strokeColor=#D6B656;strokeWidth=2;fillColor=none;fontSize=14;" parent="w6Rwm8e1sw4K4lW6BCrl-1" vertex="1">
          <mxGeometry x="8" y="420" width="147" height="90" as="geometry"/>
        </mxCell>
        <mxCell id="CfiYvJVaCbj04n-nvV5e-7" value="會議室如下：&lt;br&gt;......." style="ellipse;shape=cloud;whiteSpace=wrap;html=1;rounded=0;shadow=0;glass=0;comic=0;strokeColor=#D6B656;strokeWidth=2;fillColor=none;fontSize=14;" parent="w6Rwm8e1sw4K4lW6BCrl-1" vertex="1">
          <mxGeometry x="157" y="420" width="147" height="90" as="geometry"/>
        </mxCell>
        <mxCell id="9JWityE0YdkbXkSyagQY-1" value="" style="edgeStyle=orthogonalEdgeStyle;rounded=1;orthogonalLoop=1;jettySize=auto;html=1;fontSize=13;strokeColor=#990000;strokeWidth=2;entryX=0.5;entryY=0;entryDx=0;entryDy=0;exitX=0.55;exitY=0.95;exitDx=0;exitDy=0;exitPerimeter=0;" parent="w6Rwm8e1sw4K4lW6BCrl-1" source="EQKN0aqliQptyV6O3c2N-2" target="mzmMlJA1ObpwoUsL8CBz-1" edge="1">
          <mxGeometry relative="1" as="geometry">
            <mxPoint x="557" y="176" as="sourcePoint"/>
            <mxPoint x="213" y="220" as="targetPoint"/>
          </mxGeometry>
        </mxCell>
        <mxCell id="rTpJBMfq_tbypvYC7egJ-1" value="" style="edgeStyle=orthogonalEdgeStyle;rounded=1;orthogonalLoop=1;jettySize=auto;html=1;fontSize=13;strokeColor=#990000;strokeWidth=2;entryX=0;entryY=0.5;entryDx=0;entryDy=0;" parent="w6Rwm8e1sw4K4lW6BCrl-1" source="iG2WkD3D25VhXps0-Iqj-0" target="bkxBSIzz55Cx79u4aOW4-0" edge="1">
          <mxGeometry relative="1" as="geometry">
            <mxPoint x="476" y="410" as="targetPoint"/>
          </mxGeometry>
        </mxCell>
        <mxCell id="xGLGAzfL3jSAB1ZUi6xD-4" value="" style="edgeStyle=orthogonalEdgeStyle;rounded=1;orthogonalLoop=1;jettySize=auto;html=1;fontSize=13;strokeColor=#990000;strokeWidth=2;entryX=0.5;entryY=0;entryDx=0;entryDy=0;" parent="w6Rwm8e1sw4K4lW6BCrl-1" source="iG2WkD3D25VhXps0-Iqj-0" target="xGLGAzfL3jSAB1ZUi6xD-0" edge="1">
          <mxGeometry relative="1" as="geometry">
            <mxPoint x="419" y="545" as="targetPoint"/>
          </mxGeometry>
        </mxCell>
        <mxCell id="iG2WkD3D25VhXps0-Iqj-0" value="&lt;p style=&quot;line-height: 100%&quot;&gt;&lt;br&gt;&lt;/p&gt;" style="strokeWidth=2;html=1;shape=mxgraph.flowchart.decision;whiteSpace=wrap;shadow=0;fillColor=#fad9d5;fontSize=13;labelBorderColor=none;strokeColor=#ae4132;spacing=0;" parent="w6Rwm8e1sw4K4lW6BCrl-1" vertex="1">
          <mxGeometry x="396.5" y="420" width="45" height="45" as="geometry"/>
        </mxCell>
        <mxCell id="iG2WkD3D25VhXps0-Iqj-1" value="" style="edgeStyle=orthogonalEdgeStyle;rounded=1;orthogonalLoop=1;jettySize=auto;html=1;fontSize=13;strokeColor=#990000;strokeWidth=2;exitX=0.5;exitY=1;exitDx=0;exitDy=0;entryX=0.5;entryY=0;entryDx=0;entryDy=0;entryPerimeter=0;" parent="w6Rwm8e1sw4K4lW6BCrl-1" source="mzmMlJA1ObpwoUsL8CBz-1" target="iG2WkD3D25VhXps0-Iqj-0" edge="1">
          <mxGeometry relative="1" as="geometry">
            <mxPoint x="480" y="413" as="sourcePoint"/>
            <mxPoint x="490" y="490" as="targetPoint"/>
          </mxGeometry>
        </mxCell>
        <mxCell id="QGVVUj5-JQbVLGseX_jS-0" value="&lt;span&gt;&lt;font style=&quot;font-size: 14px&quot;&gt;&amp;nbsp;&lt;br&gt;Date?&lt;br&gt;Time-Period?&lt;br&gt;&lt;/font&gt;&lt;/span&gt;" style="text;html=1;resizable=0;autosize=1;align=left;verticalAlign=middle;points=[];fillColor=none;strokeColor=none;rounded=0;shadow=0;fontSize=13;fontStyle=0;fontColor=#AE4132;" parent="w6Rwm8e1sw4K4lW6BCrl-1" vertex="1">
          <mxGeometry x="319" y="375.5" width="100" height="60" as="geometry"/>
        </mxCell>
        <mxCell id="QGVVUj5-JQbVLGseX_jS-2" value="" style="edgeStyle=orthogonalEdgeStyle;rounded=1;orthogonalLoop=1;jettySize=auto;html=1;fontSize=13;strokeColor=#990000;strokeWidth=2;entryX=0.4;entryY=0.1;entryDx=0;entryDy=0;entryPerimeter=0;exitX=0;exitY=0.5;exitDx=0;exitDy=0;exitPerimeter=0;" parent="w6Rwm8e1sw4K4lW6BCrl-1" source="Wf8VR-S96phb23UKXtt4-8" target="EQKN0aqliQptyV6O3c2N-2" edge="1">
          <mxGeometry relative="1" as="geometry">
            <mxPoint x="507" y="176" as="sourcePoint"/>
            <mxPoint x="163" y="220" as="targetPoint"/>
          </mxGeometry>
        </mxCell>
        <mxCell id="rTpJBMfq_tbypvYC7egJ-0" value="後天下午可用設備如下：&lt;br&gt;..........&lt;br&gt;請問需要幫您預約嗎？&lt;br&gt;" style="ellipse;shape=cloud;whiteSpace=wrap;html=1;rounded=0;shadow=0;glass=0;comic=0;strokeColor=#D6B656;strokeWidth=2;fillColor=none;fontSize=14;" parent="w6Rwm8e1sw4K4lW6BCrl-1" vertex="1">
          <mxGeometry x="330" y="600" width="188" height="120" as="geometry"/>
        </mxCell>
        <mxCell id="xGLGAzfL3jSAB1ZUi6xD-2" value="" style="edgeStyle=orthogonalEdgeStyle;rounded=1;orthogonalLoop=1;jettySize=auto;html=1;fontSize=13;strokeColor=#990000;strokeWidth=2;entryX=0.4;entryY=0.1;entryDx=0;entryDy=0;entryPerimeter=0;" parent="w6Rwm8e1sw4K4lW6BCrl-1" source="xGLGAzfL3jSAB1ZUi6xD-0" target="rTpJBMfq_tbypvYC7egJ-0" edge="1">
          <mxGeometry relative="1" as="geometry"/>
        </mxCell>
        <mxCell id="xGLGAzfL3jSAB1ZUi6xD-0" value="&lt;p style=&quot;margin: 4px 0px 0px ; font-size: 13px&quot;&gt;&lt;strong style=&quot;font-size: 13px&quot;&gt;Fulfillment{}&lt;/strong&gt;&lt;/p&gt;&lt;hr style=&quot;font-size: 13px&quot;&gt;&lt;p style=&quot;margin: 0px 0px 0px 8px ; font-size: 13px&quot;&gt;查詢可用設備&lt;/p&gt;&lt;p style=&quot;margin: 0px 0px 0px 8px ; font-size: 13px&quot;&gt;(by日期/時段)&lt;br&gt;&lt;/p&gt;" style="verticalAlign=middle;align=center;overflow=fill;fontSize=13;fontFamily=Helvetica;html=1;rounded=1;fontStyle=1;strokeWidth=2;fillColor=#E6FFCC;strokeColor=#006600;" parent="w6Rwm8e1sw4K4lW6BCrl-1" vertex="1">
          <mxGeometry x="347" y="495" width="143" height="75" as="geometry"/>
        </mxCell>
        <mxCell id="9gwf3tFKpbmoKM7n8hCI-3" value="" style="edgeStyle=orthogonalEdgeStyle;rounded=1;orthogonalLoop=1;jettySize=auto;html=1;fontSize=13;fontColor=#000000;strokeColor=#990000;strokeWidth=2;entryX=1;entryY=0.5;entryDx=0;entryDy=0;" parent="w6Rwm8e1sw4K4lW6BCrl-1" source="9gwf3tFKpbmoKM7n8hCI-0" target="bkxBSIzz55Cx79u4aOW4-0" edge="1">
          <mxGeometry relative="1" as="geometry">
            <mxPoint x="620" y="400" as="targetPoint"/>
          </mxGeometry>
        </mxCell>
        <mxCell id="9gwf3tFKpbmoKM7n8hCI-0" value="&lt;p style=&quot;line-height: 100%&quot;&gt;&lt;br&gt;&lt;/p&gt;" style="strokeWidth=2;html=1;shape=mxgraph.flowchart.decision;whiteSpace=wrap;shadow=0;fillColor=#fad9d5;fontSize=13;labelBorderColor=none;strokeColor=#ae4132;spacing=0;" parent="w6Rwm8e1sw4K4lW6BCrl-1" vertex="1">
          <mxGeometry x="677" y="420" width="45" height="45" as="geometry"/>
        </mxCell>
        <mxCell id="NeMSu5lqnRDFXtwL_Rys-0" value="&lt;span&gt;&lt;font style=&quot;font-size: 14px&quot;&gt;meeting_room?&amp;nbsp;&lt;br&gt;Date?&lt;br&gt;Time-Period?&lt;br&gt;&lt;/font&gt;&lt;/span&gt;" style="text;html=1;resizable=0;autosize=1;align=left;verticalAlign=middle;points=[];fillColor=none;strokeColor=none;rounded=0;shadow=0;fontSize=13;fontStyle=0;fontColor=#AE4132;" parent="w6Rwm8e1sw4K4lW6BCrl-1" vertex="1">
          <mxGeometry x="730" y="390" width="120" height="60" as="geometry"/>
        </mxCell>
        <mxCell id="NeMSu5lqnRDFXtwL_Rys-1" value="" style="edgeStyle=orthogonalEdgeStyle;rounded=1;orthogonalLoop=1;jettySize=auto;html=1;fontSize=13;strokeColor=#990000;strokeWidth=2;exitX=0.55;exitY=0.95;exitDx=0;exitDy=0;exitPerimeter=0;entryX=0.5;entryY=0;entryDx=0;entryDy=0;" parent="w6Rwm8e1sw4K4lW6BCrl-1" source="EQKN0aqliQptyV6O3c2N-3" target="mzmMlJA1ObpwoUsL8CBz-4" edge="1">
          <mxGeometry relative="1" as="geometry">
            <mxPoint x="510" y="271" as="sourcePoint"/>
            <mxPoint x="511" y="330" as="targetPoint"/>
          </mxGeometry>
        </mxCell>
        <mxCell id="D-bHtXgLReRAsH9aPYUE-0" value="&lt;b&gt;&lt;font style=&quot;font-size: 15px&quot;&gt;No&lt;/font&gt;&lt;/b&gt;" style="text;html=1;resizable=0;autosize=1;align=center;verticalAlign=middle;points=[];fillColor=none;strokeColor=none;rounded=0;shadow=0;fontSize=13;fontColor=#AE4132;" parent="w6Rwm8e1sw4K4lW6BCrl-1" vertex="1">
          <mxGeometry x="435.5" y="420" width="40" height="20" as="geometry"/>
        </mxCell>
        <mxCell id="D-bHtXgLReRAsH9aPYUE-1" value="&lt;b&gt;&lt;font style=&quot;font-size: 15px&quot;&gt;Yes&lt;/font&gt;&lt;/b&gt;" style="text;html=1;resizable=0;autosize=1;align=center;verticalAlign=middle;points=[];fillColor=none;strokeColor=none;rounded=0;shadow=0;fontSize=13;fontColor=#AE4132;" parent="w6Rwm8e1sw4K4lW6BCrl-1" vertex="1">
          <mxGeometry x="430.5" y="457.5" width="40" height="20" as="geometry"/>
        </mxCell>
        <mxCell id="D-bHtXgLReRAsH9aPYUE-2" value="&lt;b&gt;&lt;font style=&quot;font-size: 15px&quot;&gt;No&lt;/font&gt;&lt;/b&gt;" style="text;html=1;resizable=0;autosize=1;align=center;verticalAlign=middle;points=[];fillColor=none;strokeColor=none;rounded=0;shadow=0;fontSize=13;fontColor=#AE4132;" parent="w6Rwm8e1sw4K4lW6BCrl-1" vertex="1">
          <mxGeometry x="641" y="420" width="40" height="20" as="geometry"/>
        </mxCell>
        <mxCell id="D-bHtXgLReRAsH9aPYUE-3" value="&lt;b&gt;&lt;font style=&quot;font-size: 15px&quot;&gt;Yes&lt;/font&gt;&lt;/b&gt;" style="text;html=1;resizable=0;autosize=1;align=center;verticalAlign=middle;points=[];fillColor=none;strokeColor=none;rounded=0;shadow=0;fontSize=13;fontColor=#AE4132;" parent="w6Rwm8e1sw4K4lW6BCrl-1" vertex="1">
          <mxGeometry x="620" y="455" width="40" height="20" as="geometry"/>
        </mxCell>
        <mxCell id="r9hO7Zq602qs0hkvAXm8-0" value="&lt;p style=&quot;margin: 4px 0px 0px ; font-size: 13px&quot;&gt;&lt;strong style=&quot;font-size: 13px&quot;&gt;Fulfillment{}&lt;/strong&gt;&lt;/p&gt;&lt;hr style=&quot;font-size: 13px&quot;&gt;&lt;p style=&quot;margin: 0px 0px 0px 8px ; font-size: 13px&quot;&gt;查詢設備是否被佔用&lt;/p&gt;&lt;p style=&quot;margin: 0px 0px 0px 8px ; font-size: 13px&quot;&gt;(by日期/時段)&lt;br&gt;&lt;/p&gt;" style="verticalAlign=middle;align=center;overflow=fill;fontSize=13;fontFamily=Helvetica;html=1;rounded=1;fontStyle=1;strokeWidth=2;fillColor=#E6FFCC;strokeColor=#006600;" parent="w6Rwm8e1sw4K4lW6BCrl-1" vertex="1">
          <mxGeometry x="619.5" y="495" width="160" height="80" as="geometry"/>
        </mxCell>
        <mxCell id="r9hO7Zq602qs0hkvAXm8-1" value="" style="edgeStyle=orthogonalEdgeStyle;rounded=1;orthogonalLoop=1;jettySize=auto;html=1;fontSize=13;fontColor=#000000;strokeColor=#990000;strokeWidth=2;entryX=0.5;entryY=0;entryDx=0;entryDy=0;exitX=0.5;exitY=1;exitDx=0;exitDy=0;exitPerimeter=0;" parent="w6Rwm8e1sw4K4lW6BCrl-1" source="9gwf3tFKpbmoKM7n8hCI-0" target="r9hO7Zq602qs0hkvAXm8-0" edge="1">
          <mxGeometry relative="1" as="geometry">
            <mxPoint x="820" y="490" as="sourcePoint"/>
            <mxPoint x="820" y="530" as="targetPoint"/>
          </mxGeometry>
        </mxCell>
        <mxCell id="r9hO7Zq602qs0hkvAXm8-2" value="" style="edgeStyle=orthogonalEdgeStyle;rounded=1;orthogonalLoop=1;jettySize=auto;html=1;fontSize=13;strokeColor=#990000;strokeWidth=2;entryX=0.625;entryY=0.2;entryDx=0;entryDy=0;entryPerimeter=0;exitX=1;exitY=0.5;exitDx=0;exitDy=0;exitPerimeter=0;" parent="w6Rwm8e1sw4K4lW6BCrl-1" source="Wf8VR-S96phb23UKXtt4-8" target="EQKN0aqliQptyV6O3c2N-3" edge="1">
          <mxGeometry relative="1" as="geometry">
            <mxPoint x="507" y="176" as="sourcePoint"/>
            <mxPoint x="385" y="216" as="targetPoint"/>
            <Array as="points">
              <mxPoint x="711" y="166"/>
            </Array>
          </mxGeometry>
        </mxCell>
        <mxCell id="MrsqGU3FzaFsbvc7nN8e-0" value="" style="group" parent="w6Rwm8e1sw4K4lW6BCrl-1" vertex="1" connectable="0">
          <mxGeometry x="510" y="405" width="84" height="26" as="geometry"/>
        </mxCell>
        <mxCell id="MrsqGU3FzaFsbvc7nN8e-1" value="" style="shape=curlyBracket;whiteSpace=wrap;html=1;rounded=1;shadow=0;glass=0;comic=0;strokeColor=#4D4D4D;strokeWidth=2;fillColor=none;fontSize=14;align=right;" parent="MrsqGU3FzaFsbvc7nN8e-0" vertex="1">
          <mxGeometry width="9" height="26" as="geometry"/>
        </mxCell>
        <mxCell id="MrsqGU3FzaFsbvc7nN8e-2" value="" style="shape=curlyBracket;whiteSpace=wrap;html=1;rounded=1;shadow=0;glass=0;comic=0;strokeColor=#4D4D4D;strokeWidth=2;fillColor=none;fontSize=14;align=right;rotation=180;" parent="MrsqGU3FzaFsbvc7nN8e-0" vertex="1">
          <mxGeometry x="77" width="7" height="23" as="geometry"/>
        </mxCell>
        <mxCell id="MrsqGU3FzaFsbvc7nN8e-3" value="slot filling" style="text;resizable=0;autosize=1;align=center;verticalAlign=middle;points=[];fillColor=none;strokeColor=none;rounded=0;shadow=0;comic=0;fontSize=16;fontColor=#4D4D4D;fontStyle=2;" parent="MrsqGU3FzaFsbvc7nN8e-0" vertex="1">
          <mxGeometry x="7" y="1.5" width="70" height="20" as="geometry"/>
        </mxCell>
        <mxCell id="MrsqGU3FzaFsbvc7nN8e-4" value="我想要預約&lt;br&gt;會議室" style="ellipse;shape=cloud;whiteSpace=wrap;html=1;rounded=0;shadow=0;glass=0;comic=0;strokeColor=#10739e;strokeWidth=2;fillColor=none;fontSize=14;" parent="w6Rwm8e1sw4K4lW6BCrl-1" vertex="1">
          <mxGeometry x="790" y="195.5" width="105" height="83" as="geometry"/>
        </mxCell>
        <mxCell id="MrsqGU3FzaFsbvc7nN8e-5" value="我想要取消&lt;br&gt;預約會議室" style="ellipse;shape=cloud;whiteSpace=wrap;html=1;rounded=0;shadow=0;glass=0;comic=0;strokeColor=#10739e;strokeWidth=2;fillColor=none;fontSize=14;" parent="w6Rwm8e1sw4K4lW6BCrl-1" vertex="1">
          <mxGeometry x="900" y="195.5" width="105" height="83" as="geometry"/>
        </mxCell>
        <mxCell id="MrsqGU3FzaFsbvc7nN8e-6" value="" style="edgeStyle=orthogonalEdgeStyle;rounded=1;orthogonalLoop=1;jettySize=auto;html=1;fontSize=13;strokeColor=#990000;strokeWidth=2;entryX=0.625;entryY=0.2;entryDx=0;entryDy=0;entryPerimeter=0;exitX=1;exitY=0.5;exitDx=0;exitDy=0;exitPerimeter=0;" parent="w6Rwm8e1sw4K4lW6BCrl-1" source="Wf8VR-S96phb23UKXtt4-8" target="MrsqGU3FzaFsbvc7nN8e-5" edge="1">
          <mxGeometry relative="1" as="geometry">
            <mxPoint x="800" y="102" as="sourcePoint"/>
            <mxPoint x="954" y="150" as="targetPoint"/>
            <Array as="points">
              <mxPoint x="966" y="166"/>
            </Array>
          </mxGeometry>
        </mxCell>
        <mxCell id="MrsqGU3FzaFsbvc7nN8e-7" value="" style="edgeStyle=orthogonalEdgeStyle;rounded=1;orthogonalLoop=1;jettySize=auto;html=1;fontSize=13;strokeColor=#990000;strokeWidth=2;entryX=0.625;entryY=0.2;entryDx=0;entryDy=0;entryPerimeter=0;exitX=1;exitY=0.5;exitDx=0;exitDy=0;exitPerimeter=0;" parent="w6Rwm8e1sw4K4lW6BCrl-1" source="Wf8VR-S96phb23UKXtt4-8" target="MrsqGU3FzaFsbvc7nN8e-4" edge="1">
          <mxGeometry relative="1" as="geometry">
            <mxPoint x="670" y="72.5" as="sourcePoint"/>
            <mxPoint x="824" y="120.5" as="targetPoint"/>
            <Array as="points">
              <mxPoint x="856" y="166"/>
            </Array>
          </mxGeometry>
        </mxCell>
        <mxCell id="MrsqGU3FzaFsbvc7nN8e-8" value="&lt;p style=&quot;line-height: 100%; font-size: 18px;&quot;&gt;W&lt;/p&gt;" style="strokeWidth=2;html=1;shape=mxgraph.flowchart.decision;whiteSpace=wrap;shadow=0;fillColor=#fff2cc;fontSize=18;labelBorderColor=none;strokeColor=#d6b656;spacing=0;fontStyle=1;fontColor=#C2A54E;" parent="w6Rwm8e1sw4K4lW6BCrl-1" vertex="1">
          <mxGeometry x="620" y="760" width="60" height="60" as="geometry"/>
        </mxCell>
        <mxCell id="MrsqGU3FzaFsbvc7nN8e-9" value="" style="edgeStyle=orthogonalEdgeStyle;rounded=1;orthogonalLoop=1;jettySize=auto;html=1;fontSize=13;strokeColor=#990000;strokeWidth=2;entryX=0;entryY=0.5;entryDx=0;entryDy=0;entryPerimeter=0;exitX=0.55;exitY=0.95;exitDx=0;exitDy=0;exitPerimeter=0;" parent="w6Rwm8e1sw4K4lW6BCrl-1" source="CfiYvJVaCbj04n-nvV5e-0" target="MrsqGU3FzaFsbvc7nN8e-8" edge="1">
          <mxGeometry relative="1" as="geometry">
            <mxPoint x="73" y="720" as="targetPoint"/>
            <mxPoint x="499" y="676" as="sourcePoint"/>
            <Array as="points">
              <mxPoint x="89" y="790"/>
            </Array>
          </mxGeometry>
        </mxCell>
        <mxCell id="MrsqGU3FzaFsbvc7nN8e-10" value="" style="edgeStyle=orthogonalEdgeStyle;rounded=1;orthogonalLoop=1;jettySize=auto;html=1;fontSize=13;strokeColor=#990000;strokeWidth=2;exitX=0.55;exitY=0.95;exitDx=0;exitDy=0;exitPerimeter=0;entryX=0;entryY=0.5;entryDx=0;entryDy=0;entryPerimeter=0;" parent="w6Rwm8e1sw4K4lW6BCrl-1" source="CfiYvJVaCbj04n-nvV5e-7" target="MrsqGU3FzaFsbvc7nN8e-8" edge="1">
          <mxGeometry relative="1" as="geometry">
            <mxPoint x="600" y="810" as="targetPoint"/>
            <mxPoint x="99" y="516" as="sourcePoint"/>
            <Array as="points">
              <mxPoint x="238" y="790"/>
            </Array>
          </mxGeometry>
        </mxCell>
        <mxCell id="MrsqGU3FzaFsbvc7nN8e-12" value="" style="edgeStyle=orthogonalEdgeStyle;rounded=1;orthogonalLoop=1;jettySize=auto;html=1;fontSize=13;fontColor=#000000;strokeColor=#990000;strokeWidth=2;exitX=0.55;exitY=0.95;exitDx=0;exitDy=0;exitPerimeter=0;entryX=0.5;entryY=0;entryDx=0;entryDy=0;" parent="w6Rwm8e1sw4K4lW6BCrl-1" source="MrsqGU3FzaFsbvc7nN8e-4" target="79elz4H1n_b1jxAeRC9k-4" edge="1">
          <mxGeometry relative="1" as="geometry">
            <mxPoint x="930" y="535" as="sourcePoint"/>
            <mxPoint x="930" y="575" as="targetPoint"/>
            <Array as="points">
              <mxPoint x="848" y="300"/>
              <mxPoint x="909" y="300"/>
            </Array>
          </mxGeometry>
        </mxCell>
        <mxCell id="MrsqGU3FzaFsbvc7nN8e-13" value="" style="edgeStyle=orthogonalEdgeStyle;rounded=1;orthogonalLoop=1;jettySize=auto;html=1;fontSize=13;fontColor=#000000;strokeColor=#990000;strokeWidth=2;exitX=0.55;exitY=0.95;exitDx=0;exitDy=0;exitPerimeter=0;entryX=0.5;entryY=0;entryDx=0;entryDy=0;" parent="w6Rwm8e1sw4K4lW6BCrl-1" source="MrsqGU3FzaFsbvc7nN8e-5" target="79elz4H1n_b1jxAeRC9k-5" edge="1">
          <mxGeometry relative="1" as="geometry">
            <mxPoint x="858" y="284" as="sourcePoint"/>
            <mxPoint x="959" y="327" as="targetPoint"/>
            <Array as="points">
              <mxPoint x="958" y="300"/>
              <mxPoint x="1054" y="300"/>
            </Array>
          </mxGeometry>
        </mxCell>
        <mxCell id="z9E7rb6zDfxLhigIJgRc-0" value="&lt;p style=&quot;margin: 4px 0px 0px ; font-size: 13px&quot;&gt;&lt;strong style=&quot;font-size: 13px&quot;&gt;Fulfillment{}&lt;/strong&gt;&lt;/p&gt;&lt;hr style=&quot;font-size: 13px&quot;&gt;&lt;p style=&quot;margin: 0px 0px 0px 8px ; font-size: 13px&quot;&gt;預約/取消預約設備&lt;/p&gt;" style="verticalAlign=middle;align=center;overflow=fill;fontSize=13;fontFamily=Helvetica;html=1;rounded=1;fontStyle=1;strokeWidth=2;fillColor=#E6FFCC;strokeColor=#006600;" parent="w6Rwm8e1sw4K4lW6BCrl-1" vertex="1">
          <mxGeometry x="911" y="513" width="143" height="68" as="geometry"/>
        </mxCell>
        <mxCell id="z9E7rb6zDfxLhigIJgRc-1" value="&lt;p style=&quot;line-height: 100%&quot;&gt;&lt;br&gt;&lt;/p&gt;" style="strokeWidth=2;html=1;shape=mxgraph.flowchart.decision;whiteSpace=wrap;shadow=0;fillColor=#fad9d5;fontSize=13;labelBorderColor=none;strokeColor=#ae4132;spacing=0;" parent="w6Rwm8e1sw4K4lW6BCrl-1" vertex="1">
          <mxGeometry x="960" y="423" width="45" height="45" as="geometry"/>
        </mxCell>
        <mxCell id="z9E7rb6zDfxLhigIJgRc-2" value="" style="edgeStyle=orthogonalEdgeStyle;rounded=1;orthogonalLoop=1;jettySize=auto;html=1;fontSize=13;fontColor=#000000;strokeColor=#990000;strokeWidth=2;exitX=0;exitY=0.5;exitDx=0;exitDy=0;exitPerimeter=0;entryX=0.5;entryY=1;entryDx=0;entryDy=0;" parent="w6Rwm8e1sw4K4lW6BCrl-1" source="z9E7rb6zDfxLhigIJgRc-1" target="bkxBSIzz55Cx79u4aOW4-0" edge="1">
          <mxGeometry relative="1" as="geometry">
            <mxPoint x="550" y="470" as="targetPoint"/>
            <mxPoint x="924" y="467.5" as="sourcePoint"/>
            <Array as="points">
              <mxPoint x="820" y="446"/>
              <mxPoint x="820" y="600"/>
              <mxPoint x="555" y="600"/>
            </Array>
          </mxGeometry>
        </mxCell>
        <mxCell id="z9E7rb6zDfxLhigIJgRc-3" value="&lt;span&gt;&lt;font style=&quot;font-size: 14px&quot;&gt;meeting_room?&amp;nbsp;&lt;br&gt;Date?&lt;br&gt;Time-Period?&lt;br&gt;&lt;/font&gt;&lt;/span&gt;" style="text;html=1;resizable=0;autosize=1;align=left;verticalAlign=middle;points=[];fillColor=none;strokeColor=none;rounded=0;shadow=0;fontSize=13;fontStyle=0;fontColor=#AE4132;" parent="w6Rwm8e1sw4K4lW6BCrl-1" vertex="1">
          <mxGeometry x="1013" y="401" width="120" height="60" as="geometry"/>
        </mxCell>
        <mxCell id="z9E7rb6zDfxLhigIJgRc-5" value="" style="edgeStyle=orthogonalEdgeStyle;rounded=1;orthogonalLoop=1;jettySize=auto;html=1;fontSize=13;fontColor=#000000;strokeColor=#990000;strokeWidth=2;entryX=0.5;entryY=0;entryDx=0;entryDy=0;exitX=0.5;exitY=1;exitDx=0;exitDy=0;entryPerimeter=0;" parent="w6Rwm8e1sw4K4lW6BCrl-1" source="79elz4H1n_b1jxAeRC9k-4" target="z9E7rb6zDfxLhigIJgRc-1" edge="1">
          <mxGeometry relative="1" as="geometry">
            <mxPoint x="867" y="391.5" as="sourcePoint"/>
            <mxPoint x="867" y="421.5" as="targetPoint"/>
          </mxGeometry>
        </mxCell>
        <mxCell id="z9E7rb6zDfxLhigIJgRc-6" value="" style="edgeStyle=orthogonalEdgeStyle;rounded=1;orthogonalLoop=1;jettySize=auto;html=1;fontSize=13;fontColor=#000000;strokeColor=#990000;strokeWidth=2;entryX=0.5;entryY=0;entryDx=0;entryDy=0;exitX=0.5;exitY=1;exitDx=0;exitDy=0;entryPerimeter=0;" parent="w6Rwm8e1sw4K4lW6BCrl-1" source="79elz4H1n_b1jxAeRC9k-5" target="z9E7rb6zDfxLhigIJgRc-1" edge="1">
          <mxGeometry relative="1" as="geometry">
            <mxPoint x="919" y="387" as="sourcePoint"/>
            <mxPoint x="993" y="433" as="targetPoint"/>
          </mxGeometry>
        </mxCell>
        <mxCell id="z9E7rb6zDfxLhigIJgRc-7" value="" style="edgeStyle=orthogonalEdgeStyle;rounded=1;orthogonalLoop=1;jettySize=auto;html=1;fontSize=13;fontColor=#000000;strokeColor=#990000;strokeWidth=2;entryX=0.5;entryY=0;entryDx=0;entryDy=0;exitX=0.5;exitY=1;exitDx=0;exitDy=0;exitPerimeter=0;" parent="w6Rwm8e1sw4K4lW6BCrl-1" source="z9E7rb6zDfxLhigIJgRc-1" target="z9E7rb6zDfxLhigIJgRc-0" edge="1">
          <mxGeometry relative="1" as="geometry">
            <mxPoint x="878.5" y="650" as="sourcePoint"/>
            <mxPoint x="952.5" y="696" as="targetPoint"/>
          </mxGeometry>
        </mxCell>
        <mxCell id="z9E7rb6zDfxLhigIJgRc-8" value="&lt;b&gt;&lt;font style=&quot;font-size: 15px&quot;&gt;No&lt;/font&gt;&lt;/b&gt;" style="text;html=1;resizable=0;autosize=1;align=center;verticalAlign=middle;points=[];fillColor=none;strokeColor=none;rounded=0;shadow=0;fontSize=13;fontColor=#AE4132;" parent="w6Rwm8e1sw4K4lW6BCrl-1" vertex="1">
          <mxGeometry x="875" y="423" width="40" height="20" as="geometry"/>
        </mxCell>
        <mxCell id="z9E7rb6zDfxLhigIJgRc-9" value="&lt;b&gt;&lt;font style=&quot;font-size: 15px&quot;&gt;Yes&lt;/font&gt;&lt;/b&gt;" style="text;html=1;resizable=0;autosize=1;align=center;verticalAlign=middle;points=[];fillColor=none;strokeColor=none;rounded=0;shadow=0;fontSize=13;fontColor=#AE4132;" parent="w6Rwm8e1sw4K4lW6BCrl-1" vertex="1">
          <mxGeometry x="987" y="473" width="40" height="20" as="geometry"/>
        </mxCell>
        <mxCell id="z9E7rb6zDfxLhigIJgRc-10" value="您好，您的會議室&lt;br&gt;已經預定/取消" style="ellipse;shape=cloud;whiteSpace=wrap;html=1;rounded=0;shadow=0;glass=0;comic=0;strokeColor=#D6B656;strokeWidth=2;fillColor=none;fontSize=14;" parent="w6Rwm8e1sw4K4lW6BCrl-1" vertex="1">
          <mxGeometry x="906" y="622.5" width="162" height="90" as="geometry"/>
        </mxCell>
        <mxCell id="z9E7rb6zDfxLhigIJgRc-11" value="&lt;p style=&quot;line-height: 100%&quot;&gt;&lt;br&gt;&lt;/p&gt;" style="strokeWidth=2;html=1;shape=mxgraph.flowchart.decision;whiteSpace=wrap;shadow=0;fillColor=#fad9d5;fontSize=13;labelBorderColor=none;strokeColor=#ae4132;spacing=0;" parent="w6Rwm8e1sw4K4lW6BCrl-1" vertex="1">
          <mxGeometry x="556.5" y="710.5" width="45" height="45" as="geometry"/>
        </mxCell>
        <mxCell id="z9E7rb6zDfxLhigIJgRc-12" value="&lt;b&gt;&lt;font style=&quot;font-size: 15px&quot;&gt;No&lt;/font&gt;&lt;/b&gt;" style="text;html=1;resizable=0;autosize=1;align=center;verticalAlign=middle;points=[];fillColor=none;strokeColor=none;rounded=0;shadow=0;fontSize=13;fontColor=#AE4132;" parent="w6Rwm8e1sw4K4lW6BCrl-1" vertex="1">
          <mxGeometry x="532" y="750" width="40" height="20" as="geometry"/>
        </mxCell>
        <mxCell id="z9E7rb6zDfxLhigIJgRc-13" value="&lt;b&gt;&lt;font style=&quot;font-size: 15px&quot;&gt;Yes&lt;/font&gt;&lt;/b&gt;" style="text;html=1;resizable=0;autosize=1;align=center;verticalAlign=middle;points=[];fillColor=none;strokeColor=none;rounded=0;shadow=0;fontSize=13;fontColor=#AE4132;" parent="w6Rwm8e1sw4K4lW6BCrl-1" vertex="1">
          <mxGeometry x="614" y="734.5" width="40" height="20" as="geometry"/>
        </mxCell>
        <mxCell id="z9E7rb6zDfxLhigIJgRc-14" value="雅加達廳明天下午&lt;br&gt;已經有人預定，資訊&lt;br&gt;如下：.........." style="ellipse;shape=cloud;whiteSpace=wrap;html=1;rounded=0;shadow=0;glass=0;comic=0;strokeColor=#D6B656;strokeWidth=2;fillColor=none;fontSize=14;" parent="w6Rwm8e1sw4K4lW6BCrl-1" vertex="1">
          <mxGeometry x="628" y="607.5" width="188" height="120" as="geometry"/>
        </mxCell>
        <mxCell id="z9E7rb6zDfxLhigIJgRc-15" value="" style="edgeStyle=orthogonalEdgeStyle;rounded=1;orthogonalLoop=1;jettySize=auto;html=1;fontSize=13;strokeColor=#990000;strokeWidth=2;entryX=0.625;entryY=0.2;entryDx=0;entryDy=0;entryPerimeter=0;exitX=0.5;exitY=1;exitDx=0;exitDy=0;jumpStyle=arc;" parent="w6Rwm8e1sw4K4lW6BCrl-1" source="r9hO7Zq602qs0hkvAXm8-0" target="z9E7rb6zDfxLhigIJgRc-14" edge="1">
          <mxGeometry relative="1" as="geometry">
            <mxPoint x="850" y="721.5" as="sourcePoint"/>
            <mxPoint x="836" y="763.5" as="targetPoint"/>
          </mxGeometry>
        </mxCell>
        <mxCell id="z9E7rb6zDfxLhigIJgRc-16" value="" style="edgeStyle=orthogonalEdgeStyle;rounded=1;orthogonalLoop=1;jettySize=auto;html=1;fontSize=13;strokeColor=#990000;strokeWidth=2;entryX=0;entryY=0.5;entryDx=0;entryDy=0;entryPerimeter=0;exitX=0.8;exitY=0.8;exitDx=0;exitDy=0;exitPerimeter=0;" parent="w6Rwm8e1sw4K4lW6BCrl-1" source="rTpJBMfq_tbypvYC7egJ-0" target="z9E7rb6zDfxLhigIJgRc-11" edge="1">
          <mxGeometry relative="1" as="geometry">
            <mxPoint x="300" y="678" as="sourcePoint"/>
            <mxPoint x="286" y="720" as="targetPoint"/>
            <Array as="points">
              <mxPoint x="480" y="733"/>
            </Array>
          </mxGeometry>
        </mxCell>
        <mxCell id="z9E7rb6zDfxLhigIJgRc-17" value="" style="edgeStyle=orthogonalEdgeStyle;rounded=1;orthogonalLoop=1;jettySize=auto;html=1;fontSize=13;strokeColor=#990000;strokeWidth=2;entryX=0;entryY=0.5;entryDx=0;entryDy=0;exitX=1;exitY=0.5;exitDx=0;exitDy=0;exitPerimeter=0;jumpStyle=arc;" parent="w6Rwm8e1sw4K4lW6BCrl-1" source="z9E7rb6zDfxLhigIJgRc-11" target="79elz4H1n_b1jxAeRC9k-4" edge="1">
          <mxGeometry relative="1" as="geometry">
            <mxPoint x="751.5" y="732" as="sourcePoint"/>
            <mxPoint x="828.5" y="759" as="targetPoint"/>
            <Array as="points">
              <mxPoint x="752" y="733"/>
              <mxPoint x="752" y="759"/>
              <mxPoint x="840" y="759"/>
              <mxPoint x="840" y="347"/>
            </Array>
          </mxGeometry>
        </mxCell>
        <mxCell id="z9E7rb6zDfxLhigIJgRc-18" value="" style="edgeStyle=orthogonalEdgeStyle;rounded=1;orthogonalLoop=1;jettySize=auto;html=1;fontSize=13;strokeColor=#990000;strokeWidth=2;entryX=0;entryY=0.5;entryDx=0;entryDy=0;entryPerimeter=0;exitX=0.5;exitY=1;exitDx=0;exitDy=0;exitPerimeter=0;" parent="w6Rwm8e1sw4K4lW6BCrl-1" source="z9E7rb6zDfxLhigIJgRc-11" target="MrsqGU3FzaFsbvc7nN8e-8" edge="1">
          <mxGeometry relative="1" as="geometry">
            <mxPoint x="490" y="732" as="sourcePoint"/>
            <mxPoint x="567" y="759" as="targetPoint"/>
          </mxGeometry>
        </mxCell>
        <mxCell id="n2OmqCVUi6yczREgheZ9-2" value="" style="edgeStyle=orthogonalEdgeStyle;rounded=1;orthogonalLoop=1;jettySize=auto;html=1;fontSize=13;fontColor=#000000;strokeColor=#990000;strokeWidth=2;entryX=0.625;entryY=0.2;entryDx=0;entryDy=0;exitX=0.5;exitY=1;exitDx=0;exitDy=0;entryPerimeter=0;" parent="w6Rwm8e1sw4K4lW6BCrl-1" source="z9E7rb6zDfxLhigIJgRc-0" target="z9E7rb6zDfxLhigIJgRc-10" edge="1">
          <mxGeometry relative="1" as="geometry">
            <mxPoint x="1080" y="600" as="sourcePoint"/>
            <mxPoint x="1080" y="645" as="targetPoint"/>
          </mxGeometry>
        </mxCell>
        <mxCell id="n2OmqCVUi6yczREgheZ9-3" value="" style="edgeStyle=orthogonalEdgeStyle;rounded=1;orthogonalLoop=1;jettySize=auto;html=1;fontSize=13;fontColor=#000000;strokeColor=#990000;strokeWidth=2;entryX=1;entryY=0.5;entryDx=0;entryDy=0;exitX=0.55;exitY=0.95;exitDx=0;exitDy=0;exitPerimeter=0;entryPerimeter=0;" parent="w6Rwm8e1sw4K4lW6BCrl-1" source="z9E7rb6zDfxLhigIJgRc-10" target="MrsqGU3FzaFsbvc7nN8e-8" edge="1">
          <mxGeometry relative="1" as="geometry">
            <mxPoint x="982.5" y="737.5" as="sourcePoint"/>
            <mxPoint x="982.5" y="782.5" as="targetPoint"/>
            <Array as="points">
              <mxPoint x="995" y="790"/>
            </Array>
          </mxGeometry>
        </mxCell>
      </root>
    </mxGraphModel>
  </diagram>
</mxfile>
